<?xml version="1.0" encoding="utf-8"?>
<!DOCTYPE svg PUBLIC "-//W3C//DTD SVG 20010904//EN" "http://www.w3.org/TR/2001/REC-SVG-20010904/DTD/svg10.dtd">
<svg version="1.0" xmlns="http://www.w3.org/2000/svg" width="960px" height="540px" viewBox="0 0 960 540" preserveAspectRatio="xMidYMid meet">
 <g fill="#000000">
  <path d="M480.20 517.65 c-0.75 -1.35 -2.40 -4.10 -3.70 -6.15 -1.35 -2.05 -3.30 -5.30 -4.35 -7.25 -1.90 -3.35 -3.70 -6.25 -9.50 -15.40 l-2.65 -4.10 0 2.15 0 2.10 -2.10 0 c-3.60 0 -5.75 0.85 -6.85 2.70 -0.60 0.90 -1.05 2 -1.05 2.45 0 0.40 -1.50 2.50 -3.35 4.70 -1.90 2.15 -3.85 4.50 -4.40 5.20 -1.40 1.85 -11.05 5.50 -18.75 7.10 -9.55 2 -19.35 3.80 -23.50 4.35 -2.05 0.25 -5.20 0.95 -6.90 1.50 -1.75 0.55 -4.30 1 -5.65 1 l-2.45 0 0 -1.70 c0 -1.35 0.40 -2 2.05 -3.35 6.40 -5.25 20.35 -20.15 23.30 -24.90 1.95 -3.15 3.25 -5.65 3 -5.85 -0.25 -0.30 -3.80 2.85 -10.35 9.10 -20.35 19.60 -31.25 26 -46.75 27.25 -6.05 0.50 -7.05 0.40 -20 -1.65 -9.55 -1.50 -22.15 -4.30 -24.55 -5.45 -1.10 -0.50 -2.30 -0.95 -2.60 -0.95 -0.35 0 -0.60 -0.15 -0.60 -0.40 0 -0.40 -4.55 -2.60 -5.45 -2.60 -0.30 0 -0.55 -0.20 -0.55 -0.45 0 -0.25 -0.45 -0.60 -1 -0.80 -0.55 -0.15 -2.35 -1.20 -4 -2.30 -2.80 -1.90 -3 -2.15 -3 -4 0 -1.20 0.25 -2 0.65 -2.05 0.30 0 3.75 -0.10 7.60 -0.15 8.35 -0.10 23.05 -1.55 25.95 -2.50 1.10 -0.35 3.40 -0.90 5.05 -1.25 3.75 -0.70 11.35 -2.75 16.15 -4.30 2 -0.65 4 -1.20 4.50 -1.20 0.50 0 1.10 -0.20 1.40 -0.45 0.25 -0.25 1.35 -0.70 2.45 -1.05 3.45 -1.10 12.85 -5.50 15.40 -7.25 1.05 -0.70 2.75 -1.70 3.75 -2.20 1 -0.55 3.55 -2.55 5.60 -4.50 4.95 -4.60 3.80 -4.65 -5.35 -0.10 -12.75 6.40 -16.50 7.75 -32.15 11.75 -4.80 1.20 -9.40 2.50 -10.25 2.80 -4 1.60 -22.20 1.45 -33 -0.25 -2.45 -0.35 -6.35 -0.80 -8.55 -0.95 -4.85 -0.35 -11.50 -2 -12.75 -3.10 -0.50 -0.45 -1.50 -2.75 -2.25 -5.15 -0.70 -2.35 -1.50 -4.55 -1.75 -4.80 -0.20 -0.30 -0.75 -2.55 -1.20 -5 -0.50 -2.50 -1.15 -5.60 -1.50 -7 -0.90 -3.35 -1.85 -11.40 -2.10 -17.25 -0.25 -6.05 1.35 -19.10 2.50 -20.20 1 -1 3.75 -1.05 4.90 0 0.95 0.85 12.65 6.20 13.60 6.20 0.35 0 2 0.65 3.70 1.45 3.20 1.55 11.15 3.90 18.65 5.60 6.60 1.45 13.90 2 19.70 1.45 6.85 -0.70 14.75 -1.95 15.85 -2.50 0.50 -0.30 1.30 -0.50 1.85 -0.50 0.55 0 1.50 -0.45 2.15 -1.05 l1.20 -1 -3.50 0.25 c-9.35 0.80 -16.85 0.90 -21.55 0.30 -5.75 -0.70 -13.30 -2.15 -17.20 -3.30 -8.10 -2.35 -7.90 -2.25 -15.50 -5.85 -4.50 -2.15 -12.60 -8 -17.60 -12.85 l-2.90 -2.75 0 -3.15 c0 -3 1.55 -11.70 2.50 -13.95 0.25 -0.60 0.70 -2.90 1 -5.10 0.55 -4.05 6.10 -26.55 7.75 -31.30 1.60 -4.75 1.60 -4.75 3.35 -4.75 1.45 0 2.50 0.85 8 6.20 9.45 9.20 20.65 19.20 24.30 21.70 2.45 1.65 9.10 5.10 9.90 5.10 0.35 0 0.70 0.15 0.80 0.40 0.20 0.45 7 3.40 10 4.30 1.95 0.55 2.45 0.60 2.90 0.05 0.70 -0.80 0.95 -0.60 -7.25 -6.05 -3.55 -2.35 -6.60 -4.50 -6.75 -4.70 -0.15 -0.20 -0.85 -0.65 -1.55 -1.05 -4.85 -2.60 -15.50 -12.80 -20.85 -19.90 -5.20 -6.95 -9.60 -13.50 -9.60 -14.40 0 -0.30 -0.30 -0.80 -0.70 -1 -0.35 -0.20 -1.40 -1.80 -2.25 -3.50 -2.25 -4.50 -2.20 -8.60 0.25 -15.40 1 -2.75 2.35 -6.55 3.05 -8.50 0.70 -1.90 1.45 -3.75 1.70 -4.05 0.25 -0.30 0.75 -1.40 1.15 -2.50 0.65 -1.95 2.50 -5.90 7.60 -16.60 l2.75 -5.65 2.30 0.15 2.25 0.15 2.20 6.50 c1.20 3.60 2.20 6.90 2.20 7.40 0 0.45 0.25 0.85 0.50 0.85 0.30 0 0.50 0.40 0.50 0.90 0 0.45 0.55 1.85 1.25 3.10 0.65 1.25 1.75 3.40 2.45 4.75 0.70 1.40 1.85 3.40 2.55 4.50 0.65 1.10 2.20 3.70 3.35 5.75 1.85 3.30 3.55 5.75 9.05 12.90 2.85 3.70 4.15 5.30 5.95 7.30 1.50 1.65 1.80 1.80 1.55 0.90 -0.15 -0.60 -0.70 -1.95 -1.20 -2.95 -0.55 -1.05 -0.95 -2.15 -0.95 -2.50 0 -0.35 -1 -2.75 -2.25 -5.30 -1.25 -2.60 -2.25 -4.90 -2.25 -5.20 0 -0.30 -0.20 -0.65 -0.45 -0.75 -0.85 -0.35 -10.55 -21.90 -10.55 -23.50 0 -0.35 -0.35 -1.15 -0.75 -1.80 -0.45 -0.60 -1.55 -4.05 -2.50 -7.70 -1.35 -5.10 -1.90 -8.50 -2.30 -14.40 -0.70 -10.05 -0.45 -12.35 2.25 -18.75 l2.20 -5.20 -2.40 0.30 c-3.05 0.35 -6.90 -0.50 -10.70 -2.35 -2.45 -1.20 -3.70 -2.30 -6.15 -5.40 -4.20 -5.20 -5.95 -8.05 -7.20 -11.75 -1.75 -5.20 -1.45 -17.10 0.50 -18.85 0.20 -0.15 0.65 -0.90 1.05 -1.75 0.95 -1.85 7.80 -8.75 8.70 -8.75 0.35 0 0.95 -0.30 1.25 -0.70 1.35 -1.60 7.05 -3.85 11.15 -4.35 5.45 -0.70 9.55 -0.10 14.90 2.25 6.75 3 10.65 5.85 13.65 9.95 2.65 3.55 2.85 4.60 2.90 14.70 0.05 5.50 0.20 8.90 0.45 8.15 0.20 -0.70 0.40 -5.95 0.45 -11.65 0.05 -11 0.75 -16.05 2.55 -18.10 0.50 -0.55 1.35 -1.95 1.95 -3.15 1.05 -2 1.15 -2.10 3.40 -2.10 l2.30 0 -0.35 7.10 c-0.20 3.95 -0.45 8.50 -0.60 10.15 l-0.30 3 33.15 -0.10 c43.05 -0.15 59.15 -0.90 62.25 -2.90 0.60 -0.35 1.45 -1.50 1.90 -2.50 1.20 -2.45 0.40 -4.70 -2.75 -8.10 -2.20 -2.30 -2.45 -2.85 -2.45 -4.85 0 -1.25 0.20 -2.40 0.50 -2.55 0.30 -0.15 -0.95 -2.40 -2.75 -5.10 -1.80 -2.65 -3.25 -5.15 -3.25 -5.60 0 -0.50 -0.65 -1.50 -1.50 -2.30 -1.90 -1.85 -5.05 -7.10 -6.65 -11.25 -1.65 -4.30 -1.75 -4.65 -2.60 -9.80 -1.55 -9.40 -0.35 -17.75 2.95 -20.85 4.50 -4.25 12.60 -6.45 27.20 -7.40 7.25 -0.45 9.80 -0.40 16.65 0.30 13.65 1.40 20.45 3.45 24.05 7.30 4.60 4.85 4.30 22.10 -0.50 31.95 -1.40 2.85 -5.70 10.15 -6.60 11.25 -0.50 0.55 -1.25 1.70 -1.70 2.50 -0.45 0.85 -1.80 2.90 -3.05 4.65 -2.05 3 -2.15 3.30 -1.90 5.85 0.30 2.65 0.25 2.75 -2.20 5.60 -3.20 3.70 -4 5.90 -2.95 8.30 1.95 4.70 3.35 4.85 51.05 5.15 21.75 0.10 41 0.30 42.85 0.40 l3.40 0.25 -0.40 -6.85 c-0.20 -3.75 -0.35 -8.30 -0.35 -10.10 l0 -3.25 1.85 -0.15 c1.75 -0.15 1.95 0 3.60 2.50 2.35 3.75 3.30 6.15 3.65 9.50 0.35 3.45 0.85 3.95 1.85 2.05 1.10 -2.15 6 -6.95 9.05 -8.90 1.50 -0.95 2.80 -1.75 2.95 -1.75 0.10 0 1.65 -0.65 3.40 -1.45 4.35 -2 8.50 -2.75 14.05 -2.45 4 0.20 5.10 0.50 8.35 2.05 12.30 6 17.55 14 16.85 25.55 -0.40 6.60 -2 11.20 -5.85 16.60 -3.80 5.45 -5.25 6.80 -9.20 8.80 -2.50 1.30 -3.80 1.60 -7.20 1.80 -3.55 0.20 -4.30 0.10 -5.20 -0.70 l-1.05 -0.95 1.10 2.10 c1.30 2.60 3.25 7.75 4.60 12.15 1.10 3.60 1 7.40 -0.35 15.90 -1.10 6.70 -5.55 18.90 -11.40 31.25 -1.25 2.70 -2.30 5.05 -2.30 5.30 0 0.20 -1.55 3.50 -3.45 7.35 -1.90 3.80 -3.60 7.50 -3.80 8.20 -0.20 0.70 -1 2.65 -1.80 4.40 -0.80 1.75 -1.35 3.35 -1.20 3.65 0.40 0.60 9.45 -8.40 12.60 -12.55 4.40 -5.75 10.20 -16.40 13.30 -24.25 1.90 -4.85 5.95 -16 6.55 -18 0.55 -1.85 0.70 -2 2.65 -2.15 2.55 -0.20 3.20 0.60 6.15 7.65 2.30 5.50 2.85 6.80 4.50 10.50 3.20 7.15 9 25.05 9 27.85 0 3.50 -3.20 11.25 -7.40 17.85 -3.55 5.65 -17.20 20.05 -23.10 24.50 -0.95 0.70 -3.25 2.60 -5.05 4.15 -1.80 1.60 -3.50 2.90 -3.75 2.90 -0.25 0 -1.25 0.65 -2.20 1.50 -0.95 0.80 -1.90 1.45 -2.05 1.50 -0.20 0 -1.70 0.90 -3.40 2.05 -2.85 1.90 -3.90 3.45 -2.40 3.45 3.65 0 17.30 -6.55 24.15 -11.55 3 -2.20 12.10 -9.85 15.95 -13.40 1.65 -1.55 3.90 -3.60 5 -4.60 1.10 -1 3.25 -3.20 4.75 -4.90 2.45 -2.80 2.90 -3.05 4.75 -3.05 1.95 0 2 0.10 2.80 2.40 0.45 1.30 1.40 3.80 2.10 5.60 2.80 7.20 3.35 9.10 5.35 18 1.15 5.10 2.30 9.70 2.50 10.25 1.05 2.75 2.20 10.10 2.40 15.15 l0.20 5.60 -2.55 2.80 c-5.40 5.90 -17.30 13.70 -24.30 15.95 -1.10 0.35 -3.55 1.25 -5.50 2 -8.40 3.20 -10.70 3.80 -16.25 4.35 -7.05 0.75 -16.90 0.80 -24.25 0.20 -5 -0.40 -5.45 -0.40 -4.85 0.35 1.05 1.25 8.90 3.20 17.60 4.40 5.60 0.75 16.50 0.75 20.25 0 8.80 -1.80 23.25 -6.45 26.15 -8.40 0.95 -0.70 2.65 -1.60 3.80 -2 1.10 -0.45 3.85 -2.05 6.05 -3.50 3.90 -2.60 6.55 -3.35 8 -2.25 1.90 1.35 3.10 16.30 2.25 27.85 -0.35 4.40 -0.80 8.10 -1.05 8.15 -0.25 0.10 -0.45 0.80 -0.45 1.60 0 2.70 -1.50 10.30 -2.45 12.25 -0.50 1.10 -1.45 3.70 -2.10 5.75 -0.65 2.05 -1.70 4.20 -2.30 4.75 -1.75 1.65 -7 3.25 -12.65 3.75 -2.90 0.25 -6.60 0.75 -8.25 1.05 -1.65 0.30 -9.35 0.65 -17.15 0.80 -14.10 0.20 -14.10 0.20 -19 -1.15 -5.75 -1.55 -13.95 -4.10 -15.35 -4.70 -0.55 -0.25 -4.05 -1.50 -7.75 -2.80 -17.75 -6.05 -21.30 -7.30 -23.10 -8.20 -2.65 -1.25 -1.75 -0.20 2.55 2.95 1.80 1.35 6.60 4.10 10.55 6.05 4 1.95 7.65 3.80 8.15 4.05 0.50 0.25 4.20 1.60 8.25 3 8.45 2.85 18.25 5.40 26.85 6.95 3.30 0.55 7.10 1.30 8.50 1.60 1.40 0.30 8.05 0.60 15.25 0.60 l12.75 0.05 0.15 2.05 c0.15 1.90 0.05 2.10 -2.50 3.80 -1.45 1 -6.15 3.55 -10.40 5.60 -6.20 3.05 -8.75 4 -12.70 4.80 -2.70 0.55 -5.95 1.35 -7.25 1.75 -11 3.55 -14.35 4.10 -27 4.45 -8.20 0.25 -9.65 0.20 -13.75 -0.75 -2.50 -0.60 -5.10 -1.35 -5.80 -1.70 -0.70 -0.35 -2.45 -1.25 -3.95 -2 -3.75 -1.85 -4.65 -2.35 -5.80 -3.30 -0.55 -0.45 -1.80 -1.30 -2.80 -1.80 -1 -0.55 -2.15 -1.30 -2.60 -1.70 -0.40 -0.40 -1.25 -1.05 -1.85 -1.45 -4.85 -3.20 -11.25 -9.10 -19.20 -17.70 -2.45 -2.65 -4.70 -4.80 -4.95 -4.80 -0.30 0 -1.10 -0.50 -1.75 -1.10 l-1.20 -1.15 0.75 1.85 c1.45 3.45 5.95 8.65 17.20 19.80 11 10.90 11.20 11.15 11.05 13 l-0.15 1.85 -3.75 -0.10 c-2.10 -0.05 -6.60 -0.65 -10 -1.35 -3.45 -0.65 -7.70 -1.35 -9.50 -1.55 -1.80 -0.20 -3.80 -0.60 -4.45 -0.85 -0.70 -0.25 -3.60 -0.90 -6.50 -1.45 -2.90 -0.60 -5.50 -1.20 -5.80 -1.45 -0.25 -0.20 -1.50 -0.55 -2.75 -0.75 -1.25 -0.20 -2.45 -0.50 -2.75 -0.70 -0.25 -0.20 -1.85 -0.85 -3.50 -1.50 -1.65 -0.60 -3.85 -1.50 -4.85 -2 -2.30 -1.10 -11.15 -10.95 -11.60 -12.90 -0.60 -2.85 -1.80 -3.75 -5.60 -4 -3.90 -0.30 -4.70 -0.75 -4.75 -2.60 0 -1.20 -0.05 -1.20 -0.60 -0.40 -3.80 5.80 -7.40 11.55 -12.30 19.75 -8.65 14.45 -8 13.60 -10.15 13.60 -1.70 0 -1.95 -0.20 -3.20 -2.35z m29.55 -36.95 c1.95 -3.05 2.05 -3.60 1 -5 -0.65 -0.90 -0.70 -0.80 -0.75 1.20 0 2.10 -0.85 4.20 -2.50 6.30 -0.45 0.60 -0.50 0.85 -0.10 0.60 0.35 -0.20 1.40 -1.60 2.35 -3.10z m-52.85 -4.80 l-0.15 -1.15 -0.65 1.15 c-0.50 0.90 -0.50 1.30 0 2.25 l0.65 1.10 0.15 -1.10 c0.10 -0.65 0.10 -1.65 0 -2.25z m79.35 -9.90 c4.30 -0.70 9.95 -2.05 10.50 -2.50 0.30 -0.25 1.65 -0.70 3 -1 4.30 -0.95 10.75 -4.45 15.70 -8.45 2.55 -2.10 5.25 -4.20 6 -4.65 4.65 -3.10 16.50 -16.75 19.15 -22.15 0.40 -0.80 0.95 -1.95 1.25 -2.50 0.25 -0.55 0.85 -1.70 1.30 -2.50 3.15 -6.15 6.40 -18 7.40 -27 0.70 -6.85 0.65 -83.95 -0.10 -101 -1.15 -27.15 -1.40 -31.75 -1.90 -36 -0.50 -4.15 -2.05 -22.65 -2.05 -24.20 0 -0.55 -0.15 -0.55 -0.75 -0.05 -0.65 0.55 -6.10 0.60 -27.90 0.25 -47.05 -0.70 -56.15 -0.65 -59.45 0.45 -3.75 1.20 -6.50 3.65 -8.25 7.20 l-1.40 2.85 0 104.55 0 104.60 3 5.90 c2.90 5.65 3 5.80 3.15 4.05 0.15 -1.75 0.25 -1.85 1.80 -1.85 1.60 0 3.95 0.60 6.05 1.50 7 3.10 14.70 3.95 23.50 2.50z m-89.25 -1.25 c2.05 -0.40 4.20 -0.95 4.75 -1.25 2.80 -1.35 8.05 -3 9.55 -3 1.45 0 1.65 0.15 1.80 1.50 0.15 1.35 0.35 1.10 2.30 -2.65 2.15 -4.15 2.20 -4.30 2.85 -12.15 1.60 -18.70 1.75 -28.65 1.25 -86.20 -0.40 -52 -0.60 -66.80 -1.25 -103.35 -0.20 -12.20 -0.25 -12.65 -1.50 -15.50 -1.55 -3.50 -3.30 -5.40 -6 -6.65 -3.75 -1.65 -6.70 -1.95 -19.25 -1.75 -50.30 0.80 -69 0.85 -69.75 0.25 -0.60 -0.50 -0.80 -0.50 -0.95 0.05 -0.50 1.75 -1.95 19.60 -3.30 41.70 -1.15 18.55 -1.50 34.25 -1.55 74 -0.10 46.05 0.05 49.80 2.80 60.25 2.65 10.05 2.10 9 11.05 22.20 2.40 3.60 6.05 8.15 8.10 10.20 5.25 5.25 11.45 10.40 14.10 11.70 1.25 0.60 3.30 1.80 4.60 2.70 1.35 0.90 3.25 1.90 4.25 2.20 1.05 0.35 2.60 1.05 3.40 1.50 0.85 0.50 2.95 1.30 4.75 1.75 1.80 0.45 3.50 1 3.75 1.25 0.30 0.20 2.85 0.75 5.75 1.25 2.90 0.45 5.35 0.95 5.50 1.10 0.45 0.45 9.05 -0.25 13 -1.10z m-88.10 -203.40 c1.25 -5.90 1.65 -9.15 1.85 -16.85 0.25 -7.40 0.20 -7.65 -0.55 -6 -0.95 2.15 -1.50 2.50 -3.55 2.50 l-1.65 0 0.30 5.40 c0.15 2.95 0.45 6.70 0.70 8.35 0.25 1.65 0.60 4.45 0.75 6.25 0.55 5.15 1.10 5.25 2.15 0.35z m251.05 1.75 c0.55 -1.90 2.05 -16.85 2.05 -20.05 0 -1.55 -0.05 -1.65 -0.65 -0.85 -0.45 0.60 -1.15 0.85 -2.35 0.70 -1.50 -0.15 -1.85 -0.40 -2.65 -2.40 l-0.90 -2.25 0.35 3.75 c0.60 7.40 1.60 15.80 2.15 18.25 0.35 1.40 0.70 3 0.85 3.65 0.30 1.55 0.60 1.40 1.15 -0.80z m4.55 -38.55 c0 -0.25 -0.35 -0.60 -0.80 -0.75 -1.10 -0.45 -1.20 -0.40 -1.20 0.45 0 0.40 0.45 0.75 1 0.75 0.55 0 1 -0.20 1 -0.45z m-131.10 -46.05 l10.55 0 1.75 1.50 c1.35 1.20 1.75 1.35 2 0.75 0.15 -0.40 1.30 -2.35 2.55 -4.25 2.15 -3.35 3.60 -6.40 6.60 -14 1.80 -4.55 1.85 -5.45 0.55 -7.70 -1.50 -2.55 -3.60 -3.75 -7.60 -4.35 -5.80 -0.80 -9.80 0.75 -10.55 4.10 -0.45 2 -3.15 3.95 -5.40 3.95 -2.75 0 -4.05 -0.85 -5.85 -3.85 -2.35 -3.85 -3.15 -4.25 -8.20 -4.25 -10.25 0.05 -13.45 5.25 -8.80 14.35 0.55 1.05 1 2.25 1 2.55 0 0.35 0.35 1.25 0.70 2.05 0.40 0.75 0.90 1.75 1.05 2.15 0.30 0.75 0.80 1.60 2.30 4 0.45 0.70 1.40 2.35 2.20 3.65 l1.35 2.45 1.60 -1.55 1.60 -1.55 10.60 0z"/>
  <path d="M746.55 385.40 c-2.25 -1.75 -5.65 -4.25 -7.55 -5.65 -15.10 -10.95 -18.35 -13.65 -19.90 -16.40 -1.05 -1.85 -1.15 -2.55 -0.95 -5.85 0.15 -2.05 0.55 -4.50 0.85 -5.40 0.60 -1.60 0.70 -1.65 2.95 -1.50 l2.30 0.15 0 3.10 c0.05 3.55 0.25 3.90 5.15 7.75 l3.15 2.50 4.10 -1.05 c8.75 -2.20 15.05 -3.60 17.75 -4 1.55 -0.25 2.45 -0.45 2 -0.50 -1.30 -0.10 -2 -1.85 -1.80 -4.65 l0.15 -2.50 -2.25 -1.20 c-1.80 -0.95 -3.85 -1.35 -10.50 -2 -4.55 -0.45 -8.55 -1.05 -8.90 -1.35 -0.45 -0.35 -0.60 -1.60 -0.50 -4.05 l0.15 -3.55 4 0.05 c2.20 0.05 7 0.45 10.65 0.90 9.50 1.15 10.80 1.10 11.50 -0.45 0.45 -1 0.95 -1.25 2.35 -1.25 l1.75 0 0 4.90 c0 3.40 -0.20 5.20 -0.70 5.90 -0.50 0.65 -0.55 1.25 -0.25 1.75 0.60 0.95 0.55 5.05 -0.05 6.65 -0.25 0.75 -0.85 1.30 -1.35 1.30 -0.80 0 -0.90 0.50 -0.90 3.55 0 2.70 -0.20 3.70 -0.75 4 -0.40 0.20 -3.45 0.85 -6.75 1.45 -5.30 0.95 -7.50 1.45 -10.20 2.30 -0.50 0.15 0.10 0.85 1.75 1.95 1.35 0.95 2.80 2 3.20 2.35 0.40 0.35 1.65 1.25 2.75 1.95 1.10 0.70 2.85 2.05 3.90 2.90 1.55 1.40 1.85 2 1.85 3.60 0 1.10 -0.35 2.75 -0.70 3.70 -0.65 1.50 -1 1.75 -2.50 1.75 -1.35 0 -2.60 -0.70 -5.75 -3.10z"/>
  <path d="M232.75 382.70 c-0.80 -0.45 -2.75 -1.20 -4.25 -1.70 -1.50 -0.50 -3.40 -1.25 -4.25 -1.65 -2.70 -1.35 -6.05 -2.80 -8.25 -3.60 -1.20 -0.40 -2.40 -0.95 -2.70 -1.15 -0.65 -0.50 -8.55 -3.85 -10.30 -4.35 -0.70 -0.20 -1.55 -0.65 -1.95 -0.95 -0.65 -0.50 -3.85 -1.45 -7.15 -2.15 -1.60 -0.30 -2.55 -1.35 -3.35 -3.60 -1.25 -3.80 -0.60 -5.20 3.65 -7.75 2.70 -1.60 7.25 -4.80 10.15 -7.05 7.70 -6 19.65 -14.70 20.70 -15 0.50 -0.20 0.95 -0.55 0.95 -0.80 0 -0.25 1 -0.45 2.20 -0.45 2.20 0 2.20 0 3 2.45 0.45 1.40 0.80 3.25 0.80 4.25 0 1.60 -0.35 1.95 -4.10 4.80 -14.15 10.50 -13.60 9.95 -12.95 11.65 0.30 0.75 0.90 3.55 1.35 6.20 1 5.70 1.20 5.95 6.95 7.95 2.20 0.75 4.55 1.70 5.25 2.05 0.70 0.35 1.50 0.65 1.80 0.65 0.30 0 2.30 0.75 4.50 1.70 l3.95 1.75 0.45 2.50 c0.25 1.35 0.30 3.05 0.10 3.75 -0.30 1.15 -0.55 1.30 -2.70 1.30 -1.30 0 -3 -0.35 -3.85 -0.80z m-21.25 -18.30 c0 -0.60 -1.55 -6.50 -1.80 -6.80 -0.20 -0.30 -2.40 1 -4.75 2.85 l-2.30 1.80 3.55 1.35 c3.95 1.50 5.30 1.70 5.30 0.80z"/>
  <path d="M185.50 330.40 c-0.35 -2.30 -0.55 -4.70 -0.45 -5.40 l0.20 -1.25 12.70 -0.25 12.65 -0.25 -4.15 -3.45 c-5.55 -4.55 -5.95 -5.05 -5.95 -7.25 0 -2.50 1.45 -4.05 3.85 -4.05 1.65 0 2.30 0.45 5.75 4 2.20 2.20 4.10 4 4.30 4 0.50 0 4.20 -3.85 7.25 -7.55 l2.35 -2.80 -2.90 -0.30 c-7.05 -0.60 -10.65 -5.30 -10 -13.05 l0.25 -2.80 -1.55 0 c-1.95 0 -3.80 1.25 -3.80 2.55 0 0.50 0.25 0.95 0.50 0.95 0.60 0 0.65 5.95 0.05 6.90 -0.25 0.40 -1.10 0.60 -2.10 0.50 -2.60 -0.25 -3.55 -2.65 -3.65 -9.05 -0.05 -4 0.15 -5.45 0.85 -6.70 1.65 -3 2.75 -3.25 14.55 -3.15 5.80 0.05 11.75 -0.05 13.25 -0.25 l2.70 -0.35 -0.35 4.40 c-0.20 2.45 -0.55 4.50 -0.80 4.60 -0.25 0.10 -0.10 0.95 0.30 1.85 1.95 4.70 0 10.75 -4.05 12.55 l-1.50 0.65 1.65 0.05 c2.40 0 4.10 2 4.10 4.80 0 2.05 -0.20 2.35 -5.60 7.70 -3.10 3.10 -5.30 5.50 -4.85 5.35 0.45 -0.15 2.60 -0.45 4.80 -0.60 4.85 -0.45 5.30 -0.10 5.55 4.75 l0.20 3.35 -19.15 0.35 c-10.55 0.20 -19.70 0.50 -20.30 0.60 -0.65 0.20 -1.15 0.75 -1.25 1.35 -0.10 0.90 -0.55 1.10 -2.45 1.25 l-2.35 0.15 -0.60 -4.15z m38.70 -34.85 c1.80 -1.85 1.50 -2.70 -1.40 -4 -2.05 -0.95 -2.35 -1 -4 -0.30 -3.25 1.35 -3.40 3.80 -0.40 5.50 1.80 1 4 0.55 5.80 -1.20z"/>
  <path d="M757.55 319.20 c-1.45 -1.85 -1.35 -4.40 0.30 -7.55 1.10 -2.05 1.25 -2.75 0.75 -3.25 -0.85 -0.85 -3.55 1.85 -5.40 5.45 -0.80 1.50 -2.30 3.50 -3.35 4.45 -1.75 1.65 -2 1.70 -5.75 1.70 -4.50 0 -6.30 -0.85 -8.15 -3.80 -1.10 -1.75 -1.20 -2.50 -1.20 -7.75 0 -7.30 0.50 -8.45 3.55 -8.45 1.80 0 2.40 0.30 3.65 1.65 2 2.05 2 3.75 0 7.25 -1.10 2 -1.40 2.85 -1 3.25 0.95 0.95 2.15 -0.25 4.80 -4.90 3.55 -6.25 6.05 -7.30 13.45 -5.55 2.30 0.55 3.25 1.05 4.25 2.35 2.90 3.70 3.30 9.15 1.05 13.75 -1.20 2.35 -1.35 2.45 -3.55 2.60 -2.05 0.15 -2.50 -0.05 -3.40 -1.20z"/>
  <path d="M757.25 298.20 c-1.90 -0.70 -5.40 -1.95 -7.75 -2.75 -2.35 -0.85 -4.90 -1.80 -5.75 -2.15 -0.80 -0.35 -4.10 -1.50 -7.25 -2.55 -7.15 -2.35 -11.35 -4.25 -13.10 -5.85 -1.75 -1.65 -2.50 -4.55 -2.30 -9.05 l0.15 -3.60 2.40 -0.15 2.35 -0.15 0 2.25 c0 2.55 1.25 3.90 5 5.50 1.25 0.50 2.95 1.20 3.85 1.60 1 0.40 1.70 0.50 1.90 0.20 0.20 -0.30 1.05 -0.85 1.90 -1.25 0.90 -0.40 2.65 -1.35 3.95 -2.10 2.15 -1.30 8.25 -4.85 13.50 -7.80 4.65 -2.65 7.10 -1.15 6.80 4.20 -0.15 2.20 -0.35 2.60 -1.65 3.30 -0.80 0.45 -1.85 1 -2.25 1.20 -0.40 0.25 -2.10 1.10 -3.75 1.95 -4.45 2.25 -7.75 4.20 -7.75 4.55 0 0.20 0.75 0.50 1.65 0.70 0.85 0.20 2.05 0.65 2.60 1 0.55 0.35 2 0.85 3.25 1.15 3.90 0.95 9.20 3 9.70 3.75 0.30 0.45 0.30 1.95 0 3.90 l-0.45 3.20 -1.75 0.10 c-0.95 0.10 -3.30 -0.45 -5.25 -1.15z"/>
  <path d="M202.65 275 c-0.35 -1.90 -1.10 -2.30 -5 -2.75 -4.40 -0.50 -4.75 -0.85 -4.85 -5.30 l-0.05 -3.70 2.10 -0.15 c1.15 -0.10 3.35 0.20 4.95 0.60 1.60 0.40 3 0.65 3.15 0.55 0.10 -0.15 0.35 -1.10 0.50 -2.10 l0.30 -1.90 2.50 0 2.50 0 0.15 2.60 0.15 2.55 2.10 0.35 c1.15 0.15 3.70 0.65 5.60 1 1.95 0.35 4.85 0.75 6.50 0.85 l3 0.15 0.25 -2.25 0.25 -2.25 2.15 0 2.20 0 1.20 3.45 c0.65 1.90 1.20 4.55 1.20 5.80 l0 2.35 -2.95 0.65 c-3.30 0.70 -8.95 0.40 -16 -0.80 -5.65 -0.95 -6 -0.90 -6.35 0.55 -0.30 1.10 -0.55 1.25 -2.75 1.25 -2.35 0 -2.50 -0.05 -2.80 -1.50z"/>
  <path d="M732.30 268.20 c-1.85 -2.25 -2.30 -3.15 -2.30 -4.70 0 -3.60 3.30 -5 18 -7.75 6.15 -1.15 6 -1.10 6 -3.05 0 -1.25 -0.20 -1.70 -0.80 -1.70 -0.45 0 -1.60 -0.45 -2.50 -1.05 -2.05 -1.25 -2.20 -2.85 -0.75 -7.10 0.85 -2.35 0.85 -2.90 0.30 -3.35 -1.20 -1 -3 1.60 -4.50 6.35 -1.95 6 -3.95 8.20 -7.85 8.55 -7.45 0.60 -12 -4.30 -11.85 -12.85 0.10 -5.15 0.35 -5.75 2.80 -5.95 1.70 -0.15 2.35 0.10 3.85 1.45 2.05 1.80 2.35 3.75 1 6.65 -0.90 1.85 -0.65 3.30 0.50 3.30 1.10 0 2.10 -1.80 2.80 -5 0.95 -4.20 1.45 -5.25 3.30 -7.05 1.60 -1.55 2.05 -1.70 5.45 -1.85 2.10 -0.10 4.50 -0.05 5.40 0.10 2.30 0.45 5.15 3.10 6.10 5.75 0.85 2.40 1 6.35 0.30 8.15 -1.10 3 -1.10 3.90 -0.10 3.90 0.55 0 1.40 0.55 1.90 1.20 0.80 1.15 1.10 1.20 3.15 0.80 1.25 -0.25 3.25 -0.45 4.50 -0.45 2.15 0 2.30 0.10 3.65 2.25 0.75 1.25 1.35 2.90 1.35 3.70 0 1.60 -0.80 1.95 -6.75 2.80 l-3 0.45 -0.15 2.65 -0.15 2.60 -2.50 0 c-2.50 0 -2.55 -0.05 -3.35 -2.05 -0.75 -2 -0.80 -2 -2.80 -1.70 -2.20 0.35 -9.35 1.95 -12.40 2.80 -1.85 0.45 -1.90 0.55 -1.90 2.70 l0 2.25 -2.20 0 c-2.10 0 -2.40 -0.15 -4.50 -2.80z"/>
  <path d="M216 259.55 c-4.90 -2 -5.50 -2.50 -7.85 -6.90 -1.45 -2.80 -1.65 -9.45 -0.25 -11.95 1.15 -2.10 3.55 -4.05 6.10 -4.95 2.60 -0.90 6.45 -1 6.70 -0.10 0.10 0.30 0.70 3.10 1.30 6.10 1.60 8.15 1.85 9.25 2.15 9.55 0.60 0.65 3.35 -0.45 5.15 -2 1.95 -1.65 1.95 -1.70 1.95 -5.35 l0 -3.70 1.95 0 c1.85 0 2 0.15 3.35 2.75 2.65 5.15 1.65 12.35 -2 14.25 -0.80 0.40 -1.55 0.90 -1.65 1.10 -0.05 0.25 -1.40 0.80 -2.95 1.30 -3.80 1.15 -10.90 1.10 -13.95 -0.10z m2.10 -10.80 c-0.10 -1.25 -0.40 -2.25 -0.65 -2.25 -0.25 0 -0.45 -0.45 -0.45 -1 0 -1.40 -0.55 -1.25 -2.45 0.70 -1.85 1.95 -1.75 2.40 0.85 3.80 2.65 1.40 2.90 1.30 2.70 -1.25z"/>
  <path d="M224.55 234.20 c-2.70 -0.85 -5.70 -2.85 -6.80 -4.55 -1.55 -2.35 -2.75 -6.75 -2.75 -10.15 0 -2.95 0.20 -3.60 1.50 -5.40 0.80 -1.15 2.45 -2.70 3.60 -3.45 1.85 -1.15 2.70 -1.40 5.75 -1.40 2.05 0 3.85 0.25 4.15 0.60 0.40 0.35 0.70 3.55 0.95 8.45 0.35 8.90 0.25 8.70 4 7.70 1.15 -0.30 2.60 -1.15 3.30 -1.90 1.10 -1.15 1.25 -1.80 1.25 -4.70 l0 -3.40 1.95 0 c1.75 0 2.05 0.20 3 2 1.20 2.30 1.85 6.60 1.35 9.15 -0.40 2.10 -3.60 6.35 -4.80 6.35 -0.50 0 -1.70 0.35 -2.65 0.75 -2.30 0.95 -10.70 0.95 -13.80 -0.05z m1.50 -12.25 c-0.05 -1.45 -0.25 -2.85 -0.35 -3.05 -0.45 -0.75 -1.65 -0.40 -3.25 0.95 l-1.60 1.35 2.15 1.90 c1.20 1.05 2.40 1.85 2.70 1.75 0.30 -0.10 0.45 -1.30 0.35 -2.90z"/>
  <path d="M723.05 233.40 c-1.70 -2.70 -2.55 -5 -2.55 -7.05 l0 -2.20 3.65 -1.10 c1.95 -0.60 7.20 -2.30 11.60 -3.70 l8 -2.60 0.15 -1.65 c0.15 -1.50 0.30 -1.60 2 -1.60 2.50 0 2.95 0.40 4.65 3.75 1.45 2.85 1.80 4.95 1.05 6.10 -0.50 0.75 -4.90 2.35 -8.80 3.15 -1.55 0.30 -2.80 0.80 -2.80 1.05 0 0.25 -0.35 0.45 -0.75 0.45 -0.40 0 -2.90 0.70 -5.50 1.50 l-4.75 1.55 0 1.70 0 1.75 -2.65 0 c-2.15 0 -2.75 -0.20 -3.30 -1.10z"/>
  <path d="M755.20 220.75 c-1.20 -0.80 -2.35 -4.40 -2.10 -6.55 0.15 -1.45 0.20 -1.45 3.55 -1.60 l3.40 -0.15 0.70 1.75 c1.05 2.45 1 6.60 -0.05 7 -1.40 0.55 -4.45 0.30 -5.50 -0.45z"/>
  <path d="M718.45 219.65 c-0.30 -0.75 -0.85 -2 -1.25 -2.75 -0.40 -0.70 -0.70 -2.20 -0.70 -3.35 0 -1.70 -0.30 -2.30 -1.85 -3.75 -1.85 -1.65 -1.90 -1.80 -2.05 -5.70 -0.25 -5.50 0.75 -8.45 4.10 -11.85 3.10 -3.20 6.95 -4.80 12.10 -5.15 4.25 -0.25 5.90 0.45 10.45 4.40 3.70 3.25 3.75 3.30 3.75 5.60 l0 1.85 3.15 -1.30 c4.25 -1.70 6.05 -2.90 6.75 -4.40 0.55 -1.15 0.85 -1.30 2.75 -1.15 1.95 0.15 2.20 0.30 3.50 2.65 0.95 1.75 1.30 3.10 1.25 4.50 -0.15 1.90 -0.30 2.10 -2.90 3.40 -2.75 1.40 -11.10 4.95 -16.75 7.10 -1.65 0.65 -6.25 2.60 -10.25 4.35 -7.10 3.15 -7.25 3.20 -7.50 4.90 -0.25 1.60 -0.40 1.75 -2.10 1.90 -1.65 0.15 -1.95 0 -2.45 -1.25z m11.20 -15.20 c4 -1.95 6.45 -3.80 7.40 -5.60 0.40 -0.70 0.15 -1.20 -1 -2.35 -2.90 -2.90 -8.10 -1.45 -13.25 3.70 -6.45 6.50 -2.60 8.90 6.85 4.25z"/>
  <path d="M244.75 212 c-0.40 -0.60 -4.40 -3.05 -12 -7.25 -5.50 -3.05 -6.20 -3.30 -7.30 -2.75 -0.55 0.30 -1.70 0.50 -2.60 0.40 -1.40 -0.15 -1.60 -0.35 -1.75 -1.80 -0.10 -1.05 0.40 -2.85 1.45 -5.10 1.55 -3.45 1.65 -3.50 3.50 -3.50 l1.95 0 0 -3.20 c0 -1.80 0.20 -3.80 0.50 -4.55 0.65 -1.65 2.80 -3.55 4.85 -4.25 l1.55 -0.55 0.20 -4.35 c0.15 -4.40 0.25 -4.70 2.65 -7.20 3.50 -3.60 10.10 -2.95 16.75 1.75 7.65 5.35 8 5.55 9.05 4.95 0.50 -0.35 1.75 -0.60 2.70 -0.60 l1.75 0 0 2.95 c0 1.85 -0.25 3.15 -0.65 3.50 -0.40 0.30 -1.10 1.45 -1.60 2.55 -0.85 1.90 -1 2 -3.10 2 -1.85 0 -2.65 -0.35 -5.50 -2.60 -3.65 -2.90 -5.60 -4.20 -9.45 -6.20 -3.05 -1.60 -4.50 -1.40 -6.20 0.90 l-1.15 1.60 2 1.75 c2.15 1.90 6.45 4.65 12.75 8.15 4.40 2.40 4.50 2.65 3.30 7.75 -0.60 2.60 -0.65 2.65 -2.40 2.65 -1.20 0 -2.75 -0.65 -5 -2.15 -6.30 -4.15 -11.65 -7.05 -13.65 -7.55 -1.05 -0.25 -1.65 -0.05 -2.60 0.90 -0.70 0.70 -1.25 1.60 -1.25 2 0 1 3.20 3.95 6.60 6.05 1.45 0.95 2.90 1.90 3.15 2.10 0.30 0.25 2.15 1.40 4.20 2.60 l3.70 2.15 -0.25 3.15 c-0.15 1.75 -0.45 3.40 -0.60 3.70 -0.45 0.70 -5.15 0.75 -5.55 0.05z"/>
  <path d="M703.60 188.95 c-2.15 -3.10 -2.75 -5.80 -1.45 -6.85 0.30 -0.25 2.60 -1.20 5.05 -2.05 8.35 -2.95 12.75 -5.90 13.55 -9.10 0.25 -0.95 -0.05 -1.60 -1.10 -2.65 -1.95 -2 -3.50 -1.60 -12 3.20 -5.95 3.30 -7.60 4 -9.40 4 -1.85 0 -2.35 -0.25 -3.20 -1.45 -1.35 -1.90 -1.45 -5.95 -0.15 -6.40 1.65 -0.60 11.75 -6.35 22.30 -12.65 l10.55 -6.35 0.15 -2.35 0.15 -2.30 1.85 0.05 c1.65 0.05 2.15 0.40 4.50 3.25 2.15 2.60 2.60 3.50 2.60 5.10 l0 1.95 -5.60 3.15 c-3.10 1.75 -6.25 3.70 -7.05 4.30 l-1.35 1.15 2.75 1.90 c3.25 2.25 4 3.95 3.65 8.35 -0.55 6.90 -3.90 9.85 -15.40 13.75 -3.70 1.30 -3.75 1.30 -3.90 3.20 -0.15 1.80 -0.20 1.85 -2.30 1.85 -2 0 -2.20 -0.15 -4.20 -3.05z"/>
  <path d="M261.05 167.40 c-11.65 -7.70 -11.05 -7.35 -13.50 -7.05 -2.40 0.35 -3.05 -0.20 -3.05 -2.40 0 -1.60 1.20 -4.60 2.65 -6.50 0.80 -1.15 1.40 -1.45 2.95 -1.45 1.90 0 2.80 0.45 8.65 4.35 1.40 0.90 3.05 2.05 3.75 2.50 0.70 0.45 2.60 1.70 4.25 2.80 2.55 1.75 3.40 2.05 5.75 2.05 l2.75 0.05 -0.05 2.50 c-0.05 1.40 -0.60 3.70 -1.20 5.15 l-1.10 2.60 -2.40 0 c-2.20 0 -3.05 -0.40 -9.45 -4.60z"/>
  <path d="M672.75 159.85 c-2.80 -1.10 -3.65 -1.80 -5.20 -4.15 -1.05 -1.60 -1.55 -3 -1.55 -4.25 0 -2.05 0.55 -2.45 3.20 -2.45 1.40 0 1.90 0.35 3 2 0.70 1.10 1.60 2 2 2 1.20 0 8.50 -1.60 9.35 -2.05 0.45 -0.20 1.35 -1.70 2 -3.30 0.65 -1.60 1.55 -3.60 2.10 -4.50 0.50 -0.85 2.55 -4.80 4.50 -8.75 l3.65 -7.15 1.90 -0.15 c1.60 -0.15 2.20 0.10 3.60 1.45 2.10 2 2.30 4.45 0.55 7 -3.30 5 -6.85 11.60 -6.85 12.75 0 0.25 1.45 -0.05 7.85 -1.85 2.85 -0.75 6.45 -1.55 8.05 -1.75 3.65 -0.40 4.25 0.20 4.50 4.55 l0.20 3.10 -4.15 0.80 c-2.30 0.45 -6.45 1.35 -9.20 2.05 -2.75 0.65 -6.10 1.50 -7.50 1.80 -1.35 0.30 -3.85 0.90 -5.50 1.35 -8 1.95 -14.05 2.55 -16.50 1.50z"/>
  <path d="M273.20 155.70 c-1.90 -1.80 -4.80 -4.40 -6.45 -5.80 -1.65 -1.45 -3.25 -2.90 -3.60 -3.30 -1.80 -2.15 -3.65 -2.95 -6.15 -2.70 l-2.50 0.25 0 -1.85 c0 -1.10 0.50 -2.65 1.30 -3.95 2.20 -3.55 3.20 -4.35 5.20 -4.35 1.85 0 1.85 -0.05 2.20 -2.30 0.40 -2.95 1.55 -4.90 4 -6.60 1.75 -1.20 2.40 -1.35 5.80 -1.30 3.20 0.05 4.20 0.25 6.15 1.40 2.35 1.40 5.75 4.80 9.45 9.60 1.55 1.95 2.25 2.50 2.70 2.15 0.35 -0.30 1.40 -0.45 2.30 -0.35 1.55 0.15 1.65 0.25 1.80 2.25 0.15 1.70 -0.15 2.55 -1.25 4 -2.15 3 -3.70 4.10 -5.65 4.15 -1.60 0 -2.10 -0.45 -6.25 -5.25 -2.45 -2.85 -4.60 -5.25 -4.75 -5.25 -0.15 0 -1.15 -0.80 -2.20 -1.75 -1.10 -0.95 -2.35 -1.75 -2.85 -1.75 -0.95 0 -4.45 2.90 -4.45 3.70 0 0.95 6 6.90 13.45 13.45 1.90 1.65 2.05 3.85 0.50 6.85 -1 1.85 -1.20 2 -3.20 2 -1.90 0 -2.40 -0.30 -5.55 -3.30z"/>
  <path d="M238.10 153 c-0.80 -0.75 -1.10 -1.60 -1.10 -3.25 0 -1.20 0.25 -2.35 0.50 -2.50 0.30 -0.20 0.95 -1.20 1.50 -2.30 0.85 -1.65 1.25 -1.95 2.65 -1.95 1.25 0 1.85 0.35 2.75 1.65 1.50 2.20 1.45 4.85 -0.15 7.35 -1.10 1.75 -1.50 2 -3.15 2 -1.25 0 -2.30 -0.35 -3 -1z"/>
  <path d="M669.40 141.45 c-1.85 -1.60 -2.40 -2.40 -2.40 -3.55 0 -1.65 1.15 -4.15 2.10 -4.55 0.60 -0.20 11.10 -8.70 14.80 -11.90 1.25 -1.10 1.60 -1.80 1.60 -3.20 0 -1.75 0 -1.75 2.15 -1.75 1.85 0 2.55 0.30 4.50 2.10 2.15 1.90 2.35 2.25 2.35 4.35 0 2.20 -0.15 2.40 -3.35 5.05 -1.80 1.50 -5.05 4.10 -7.15 5.75 -6.90 5.35 -7.50 6 -7.50 8 l0 1.75 -2.35 0 c-2.05 -0.05 -2.75 -0.30 -4.75 -2.05z"/>
  <path d="M294.10 130.70 c-4.90 -1.35 -9.85 -5.40 -11.35 -9.40 -0.70 -1.80 -0.85 -3.30 -0.65 -7.15 0.40 -8.35 2.65 -10.95 9.95 -11.50 5 -0.40 8.35 0.45 8.75 2.20 0.65 2.40 -1.05 7.60 -4.65 14.30 -0.55 1 -0.60 1.60 -0.20 2.05 0.80 0.95 4.25 1.95 5.50 1.55 1.70 -0.55 3.55 -2.80 4.15 -5.15 0.50 -2.10 0.60 -2.15 2.35 -2 l1.80 0.15 0.15 4.10 c0.15 4.40 -0.75 7.45 -2.75 9.25 -2.50 2.30 -8.05 2.95 -13.05 1.60z m-0.95 -19.80 c-0.40 -0.75 -3.05 -0.40 -4.20 0.55 l-1.15 0.90 1.45 2.30 1.50 2.30 1.30 -2.85 c0.75 -1.55 1.25 -3 1.10 -3.20z"/>
  <path d="M655.65 126.40 c-1.40 -1 -1.65 -1.45 -1.65 -3.35 0 -1.85 0.25 -2.50 1.65 -3.80 2.05 -2 7.85 -8.10 11.50 -12.10 2.45 -2.70 2.85 -3.40 2.85 -5.15 l0 -2 2.15 0 c1.85 0 2.45 0.30 4.50 2.25 1.75 1.70 2.35 2.65 2.35 3.75 0 1.40 0.10 1.50 1.95 1.50 1.40 0 2.45 0.40 3.50 1.30 1.35 1.10 1.55 1.60 1.55 3.70 0 2.25 -0.10 2.45 -1.55 2.95 -3 1.05 -5.05 0.70 -6.45 -1 -1.15 -1.35 -1.40 -1.45 -2.70 -0.95 -0.80 0.30 -4.40 3.55 -8 7.30 -5.95 6.10 -6.70 6.70 -8.30 6.70 -1 0 -2.45 -0.50 -3.35 -1.10z"/>
  <path d="M694.90 118.55 c-1.10 -1.10 -1.40 -1.85 -1.40 -3.65 0 -1.90 0.20 -2.45 1.25 -3.10 0.65 -0.45 2.10 -0.80 3.15 -0.80 1.65 0 2.15 0.30 3.75 2.20 1.90 2.30 2.30 4.05 1.35 5.85 -0.45 0.80 -1.05 0.95 -3.65 0.95 -2.75 -0.05 -3.25 -0.20 -4.45 -1.45z"/>
  <path d="M645.90 117.75 c-1.05 -0.90 -1.40 -1.65 -1.40 -2.95 l0 -1.75 -2.60 -0.15 c-2.60 -0.15 -2.65 -0.20 -4.25 -2.90 -1.50 -2.50 -1.65 -3.05 -1.65 -7 0 -4.50 0.60 -6.35 2.85 -9 7.70 -9.05 8.15 -9.70 8.15 -11.60 l0 -1.90 2.65 0 c2.35 0 2.80 0.20 4.75 1.95 1.80 1.65 2.10 2.20 2.10 3.95 0 1.20 -0.30 2.20 -0.70 2.45 -1.25 0.75 -9.35 9.85 -10.60 12 -1.15 1.95 -1.15 2.25 -0.55 3.75 1.30 3.05 2 3.25 4.70 1.25 2.35 -1.70 6.90 -6.50 8.50 -8.90 0.45 -0.65 1.60 -2.05 2.60 -3.05 2.30 -2.45 4.70 -2.60 7 -0.45 1.30 1.20 1.55 1.80 1.55 3.65 -0.05 2 -0.30 2.45 -4.50 6.80 -2.40 2.60 -6.40 7 -8.85 9.90 -4.25 5 -4.45 5.20 -6.40 5.20 -1.40 -0.05 -2.40 -0.40 -3.35 -1.25z"/>
  <path d="M314.65 117.15 c-1.85 -2.85 -5.15 -7.25 -9.40 -12.35 -4.20 -5.05 -4.50 -5.30 -6.30 -5.30 l-1.95 0 0 -2.25 c0 -1.25 0.20 -2.25 0.40 -2.25 0.20 0 1.25 -0.85 2.30 -1.85 1.45 -1.45 2.45 -1.95 4.15 -2.15 2.10 -0.25 2.35 -0.40 3.10 -2.35 1.60 -4.05 4.55 -6.15 8.80 -6.15 4.95 0 8.75 2.15 10.75 6 0.50 0.95 1.35 2.20 1.95 2.70 0.60 0.55 1.05 1.25 1.05 1.55 0 0.35 0.75 1.85 1.65 3.40 1.55 2.65 1.70 2.80 3.85 2.95 l2.25 0.15 0.15 2.25 c0.10 2.15 0 2.35 -2.45 4.40 -2.30 1.90 -2.80 2.10 -5.20 2.10 -2.40 0 -2.70 -0.10 -3.25 -1.35 -2.25 -5.45 -9.65 -15.15 -11.50 -15.15 -0.30 0 -1.35 0.75 -2.35 1.70 l-1.90 1.70 0.90 1.70 c1.55 3.05 4.90 7.65 9.20 12.65 2.75 3.15 2.80 4.75 0.40 7.40 -1.45 1.55 -2.10 1.85 -3.75 1.85 -1.60 0 -2.15 -0.25 -2.85 -1.35z"/>
  <path d="M616.15 96.15 c-0.70 -0.15 -1.25 -0.70 -1.45 -1.35 -0.15 -0.65 0.30 -6.75 1 -13.60 0.70 -6.85 1.30 -13.85 1.30 -15.60 l0 -3.10 2.50 0 c1.40 0 3.30 0.35 4.25 0.70 1.70 0.70 1.75 0.85 1.75 3.40 0 1.45 -0.20 3.90 -0.45 5.40 -0.85 5.20 -1.20 11.50 -0.65 11.50 0.30 0 2.25 -1.10 4.30 -2.50 2.10 -1.35 3.90 -2.50 4 -2.50 0.15 0 1.55 -0.80 3.15 -1.75 2.20 -1.35 3.45 -1.75 5.25 -1.75 1.30 0 2.50 0.20 2.65 0.50 0.15 0.25 0.40 1.55 0.60 2.90 l0.25 2.40 -3.40 1.70 c-3.30 1.65 -6.65 3.65 -13.80 8.30 -1.85 1.20 -3.95 3 -4.70 3.95 -1.15 1.55 -1.55 1.75 -3.40 1.70 -1.10 -0.05 -2.55 -0.20 -3.15 -0.30z"/>
  <path d="M349.65 85.80 c0.15 -3.10 0.75 -7.90 1.25 -10.60 0.55 -2.75 1.25 -6.95 1.60 -9.45 0.30 -2.45 1 -6.65 1.50 -9.25 0.55 -2.60 1.10 -7.30 1.30 -10.35 l0.35 -5.65 1.70 -1 c0.95 -0.55 2.60 -1 3.70 -1 1.75 0 2.35 0.35 4.40 2.40 1.35 1.30 3.30 3.05 4.35 3.85 1.05 0.85 2.70 2.20 3.65 3.05 3.70 3.20 14.40 12.05 16.55 13.70 1.25 0.90 3.20 2.60 4.35 3.70 1.85 1.75 2.15 2.35 2.15 4.10 0 1.85 -0.20 2.20 -2 3.45 -3.30 2.30 -4.85 1.75 -12.10 -4.10 -3.40 -2.70 -6.35 -5.20 -6.55 -5.55 -0.20 -0.30 -1.05 -0.95 -1.85 -1.35 -1.40 -0.70 -1.65 -0.65 -6.35 1.50 -2.70 1.25 -5.40 2.55 -6 2.85 -1.80 0.90 -2.80 5.70 -3.45 16.40 -0.25 4.20 -0.60 5.95 -1.20 6.60 -1.10 1.20 -4.15 2.40 -6.05 2.40 l-1.60 0 0.30 -5.70z m15 -27.30 l3.40 -1.75 -3.15 -3 -3.15 -3 -0.30 2.25 c-0.15 1.25 -0.50 3.45 -0.70 4.95 -0.25 1.55 -0.20 2.60 0.05 2.50 0.25 -0.10 2 -1 3.85 -1.95z"/>
  <path d="M597.75 84.30 c-2.90 -0.80 -3.25 -1.15 -3.25 -3.20 0 -1.80 0.90 -4.05 3.15 -7.70 5.75 -9.65 7.75 -13.60 7.30 -14.50 -0.30 -0.55 -0.45 -1.65 -0.35 -2.55 0.15 -1.55 0.25 -1.60 2.50 -1.75 3.95 -0.25 8.40 2.45 8.40 5.10 0 0.85 -0.40 2.25 -0.85 3.10 -0.50 0.85 -2.10 3.75 -3.60 6.50 -1.50 2.70 -3.30 5.85 -4.05 6.95 -1.90 2.85 -2.20 3.70 -2.05 6.40 l0.15 2.35 -2.70 -0.05 c-1.45 -0.05 -3.55 -0.35 -4.65 -0.65z"/>
  <path d="M585.55 77.75 c-0.90 -0.40 -2.20 -0.75 -2.85 -0.75 -1 0 -1.20 -0.25 -1.20 -1.45 0 -1.40 -0.05 -1.40 -2.25 -1.15 -3.25 0.35 -6.55 -0.75 -8 -2.60 -3.85 -5.15 -2.45 -13.35 2.75 -16.10 1.85 -1 2.95 -1.20 6.50 -1.20 2.80 0 4.75 0.25 5.70 0.75 0.80 0.45 1.50 0.70 1.55 0.65 0.10 -0.10 0.35 -0.95 0.65 -1.95 0.70 -2.55 -0.45 -3.80 -3.20 -3.55 -1.15 0.10 -2.85 -0.15 -3.85 -0.60 -1.60 -0.65 -1.85 -0.95 -1.85 -2.45 0 -2.15 0.45 -2.35 5.55 -2.35 4.70 0 7.45 0.95 10.10 3.40 1.60 1.60 1.85 2.10 1.85 4.15 0 1.25 -0.20 3.45 -0.50 4.85 -0.40 2.30 -1.15 4.35 -4.75 13.70 -0.90 2.35 -1 2.90 -0.40 3.10 0.50 0.20 0.65 0.90 0.55 2.15 -0.15 1.85 -0.20 1.90 -2.40 2 -1.25 0.10 -3 -0.20 -3.95 -0.60z m-3.15 -10.30 c1.65 -1.90 2.55 -3.50 2.60 -4.35 0 -0.35 -0.65 -1.30 -1.45 -2.15 -1.25 -1.25 -1.65 -1.45 -2.50 -1 -2.95 1.60 -4 5.70 -1.95 7.90 1.40 1.50 1.70 1.45 3.30 -0.40z"/>
  <path d="M467.50 66.20 c0 -1.85 0.25 -2.50 1.25 -3.30 2.10 -1.65 2.50 -4.15 2.50 -16.90 0 -6.45 -0.15 -12.35 -0.35 -13.05 -0.20 -0.75 -0.85 -1.45 -1.40 -1.60 -0.80 -0.20 -1 -0.65 -1 -2.30 0 -1.80 0.20 -2.15 1.35 -2.60 0.70 -0.25 3.15 -0.55 5.35 -0.60 l4.05 -0.10 0.40 10.25 c0.50 11.20 -0.10 21.90 -1.45 25.55 -1.35 3.85 -5.20 6.95 -8.70 6.95 l-2 0 0 -2.30z"/>
  <path d="M556.90 68.15 c-1.45 -0.35 -1.25 -6.45 0.35 -9.95 0.70 -1.50 1.25 -2.95 1.25 -3.25 0 -0.50 1.95 -5 3.20 -7.45 0.40 -0.70 0.95 -2.15 1.30 -3.25 0.35 -1.10 1 -2.90 1.50 -4 3.10 -7 4 -9.95 4 -12.85 l0 -3.05 4 0.30 c7.55 0.60 7.60 1 2.25 13.35 -1 2.35 -2.25 5.45 -2.80 6.95 -0.50 1.50 -1.15 2.95 -1.40 3.25 -0.20 0.30 -0.70 1.45 -1.05 2.55 -0.35 1.10 -1.40 3.85 -2.30 6.15 -2.05 4.95 -2.10 5.50 -0.40 5.90 1.10 0.30 1.25 0.55 1.10 2.10 -0.15 1.75 -0.25 1.85 -3.15 2.70 -2.85 0.85 -5.95 1.05 -7.85 0.55z"/>
  <path d="M400.80 67 c-2.50 -1 -5.30 -3.60 -5.30 -5 0 -0.45 -0.20 -1 -0.45 -1.25 -0.20 -0.30 -0.70 -1.60 -1 -3 -0.35 -1.35 -1.20 -4.50 -1.95 -6.95 -1.05 -3.50 -1.60 -4.50 -2.50 -4.85 -1 -0.40 -1.15 -0.75 -1 -2.80 l0.15 -2.35 2.75 -0.90 c1.50 -0.45 3.60 -0.85 4.60 -0.85 2 -0.05 2 0 2.85 3.95 2.65 12.20 3.60 14.30 7.15 16.20 1.70 0.95 1.80 0.95 3.15 0.10 1.30 -0.85 1.35 -1.05 1.05 -3.95 -0.15 -1.65 -0.50 -3.25 -0.75 -3.55 -0.25 -0.30 -0.60 -1.35 -0.80 -2.30 -0.15 -0.95 -0.85 -3.50 -1.55 -5.60 -0.65 -2.10 -1.20 -4.85 -1.20 -6.10 0 -2.70 0.50 -2.95 5.25 -2.70 l3 0.15 2.15 8 c1.15 4.40 2.60 9.70 3.20 11.75 0.60 2.05 1.15 4.90 1.25 6.30 0.30 3.30 -0.45 3.95 -4.55 3.95 -2.70 0 -3.20 0.15 -4.20 1.40 -1.10 1.25 -1.45 1.35 -5 1.35 -2.55 -0.05 -4.70 -0.35 -6.30 -1z"/>
  <path d="M545 64.15 c-1.75 -0.10 -3.40 -0.45 -3.60 -0.80 -0.80 -1.25 -0.35 -4.45 1.80 -12.50 2.60 -9.60 3.15 -12.85 2.35 -12.85 -0.30 0 -0.55 -0.90 -0.55 -2.20 0 -2.75 0.65 -3.05 5.45 -2.55 5.15 0.50 5.05 0.40 5.05 3.65 0 1.55 -0.35 3.85 -0.80 5.10 -0.40 1.20 -0.95 3.15 -1.20 4.25 -0.20 1.10 -1 4.25 -1.70 7 -0.70 2.75 -1.30 5.15 -1.30 5.40 0 0.20 0.55 0.60 1.25 0.85 1.05 0.40 1.25 0.80 1.25 2.45 0 2.10 -0.80 2.65 -3.50 2.45 -0.70 -0.05 -2.70 -0.15 -4.50 -0.25z"/>
  <path d="M424.60 52.15 c-0.90 -5.45 -1.60 -10.40 -1.60 -11.05 0 -1.75 -1.40 -4.10 -2.75 -4.60 -1 -0.35 -1.25 -0.85 -1.25 -2.15 0 -1.60 0.05 -1.65 2.90 -2.25 1.60 -0.35 3.95 -0.60 5.25 -0.60 1.45 0 2.95 -0.40 3.95 -1 1.95 -1.20 6.20 -1.35 7.60 -0.25 0.75 0.60 0.90 1.15 0.70 3.30 -0.30 2.85 -0.85 3.45 -3.30 3.45 -3.90 0 -4.45 1.75 -3.30 11 0.45 3.45 0.90 7.75 1.05 9.60 0.25 3.30 0.25 3.40 -1.10 3.90 -0.70 0.25 -2.50 0.50 -3.95 0.50 l-2.60 0 -1.60 -9.85z"/>
  <path d="M531.65 61.20 c-0.25 -0.55 -1.50 -2.55 -2.80 -4.55 -1.30 -1.95 -2.35 -3.75 -2.35 -4 -0.05 -0.20 -0.70 -1.15 -1.45 -2.05 l-1.45 -1.70 -0.25 1.45 c-0.15 0.75 -0.45 2.60 -0.60 4.05 -0.40 3.15 -0.95 3.50 -5.50 3.95 l-3.25 0.30 0 -2.70 c0 -1.50 0.25 -3.60 0.55 -4.70 0.80 -2.85 2.80 -12.50 3.95 -19 0.50 -3 1.30 -6.85 1.70 -8.50 1.20 -4.45 1.05 -6.05 -0.45 -6.45 -1.05 -0.25 -1.25 -0.60 -1.25 -2.30 l0 -2 5.75 0 5.75 0 0 2.90 c0 1.60 -0.35 4.25 -0.80 5.85 -0.40 1.65 -1.20 5.25 -1.70 8 -0.50 2.75 -1.10 5.75 -1.30 6.70 l-0.35 1.75 1.70 -1.20 c0.95 -0.65 3 -2.25 4.60 -3.60 2.50 -2.05 3.25 -2.40 5.05 -2.40 2.80 0 3.80 1.10 3.80 4.05 0 2.20 -0.05 2.30 -3.10 4.30 -1.75 1.10 -3.85 2.40 -4.75 2.85 -0.85 0.45 -1.70 1 -1.85 1.25 -0.15 0.25 0.90 2.10 2.35 4.15 5 7 5.35 7.70 5.35 10.25 0 2.85 -0.80 3.55 -4.55 4 -2.05 0.25 -2.50 0.15 -2.80 -0.65z"/>
  <path d="M445.40 57.60 c-1 -0.45 -2.45 -1.60 -3.20 -2.50 -1.15 -1.45 -1.40 -2.25 -1.60 -5.65 -0.20 -3.55 -0.10 -4.20 1.15 -6.65 1.70 -3.40 3.85 -4.65 8.65 -5.10 3.35 -0.30 3.60 -0.45 3.60 -1.50 0 -0.65 -0.65 -1.90 -1.45 -2.80 -1.35 -1.50 -1.55 -1.60 -2.15 -0.80 -0.90 1.20 -3.05 1.90 -5.70 1.90 l-2.20 0 0 -1.80 c0 -2.85 2.40 -4.90 6.60 -5.65 3.25 -0.65 7.35 -0.40 9.70 0.50 2 0.70 3.05 3.40 3.90 9.70 1.65 11.85 1.95 13.50 2.90 14.55 0.50 0.55 0.90 1.70 0.90 2.60 0 1.40 -0.20 1.60 -2.05 2.10 -1.15 0.30 -3.30 0.50 -4.90 0.45 -1.80 -0.05 -3.35 0.20 -4.40 0.70 -2.15 1.15 -7.30 1.10 -9.75 -0.05z m9.35 -8.35 c0.70 -1.75 0.75 -2.35 0.25 -3.30 -0.95 -1.90 -2.60 -3.45 -3.55 -3.45 -1.35 0 -3.10 3.20 -2.70 5 0.40 1.70 3.45 4.60 4.50 4.20 0.35 -0.15 1.05 -1.25 1.50 -2.45z"/>
  <path d="M490.95 56.30 c-2.10 -1.40 -4.45 -4.10 -4.45 -5.05 0 -0.35 -0.35 -1.05 -0.80 -1.50 -0.70 -0.65 -0.85 -2 -0.90 -6.90 -0.05 -6 -0.05 -6.15 1.55 -8.85 2.30 -3.95 3.95 -5.30 8.15 -6.75 4.95 -1.70 9.30 -1.70 11.90 -0.05 3.20 2 4.55 4.50 5.15 9.65 0.65 5.25 0.10 8.75 -1.85 12.50 -2.90 5.45 -6.15 7.50 -12.75 7.90 -3.85 0.25 -4.35 0.15 -6 -0.95z m11.40 -10.75 c0.95 -3.25 0.60 -8.35 -0.65 -10.30 -0.45 -0.70 -1.50 -1.75 -2.30 -2.30 l-1.45 -1.05 -1.60 1.75 c-4 4.20 -3.85 12.05 0.25 15.60 l2.10 1.75 1.40 -1.35 c0.85 -0.80 1.75 -2.50 2.25 -4.10z"/>
  <path d="M612.75 53.70 c-1.85 -0.95 -2.25 -1.55 -2.25 -3.50 0 -3.35 3.85 -4.70 8.35 -2.80 2.10 0.85 2.15 0.90 2.15 3.15 0 3 -1 3.95 -4.30 3.95 -1.35 0 -3.10 -0.35 -3.95 -0.80z"/>
  <path d="M550 30.05 c-1.15 -0.30 -1.25 -0.60 -1.25 -2.90 0.05 -1.40 0.35 -2.90 0.70 -3.35 0.80 -0.95 4.30 -1.05 7.20 -0.25 1.80 0.50 1.85 0.55 1.85 2.95 0 3.30 -0.80 4 -4.40 3.95 -1.55 -0.05 -3.40 -0.20 -4.10 -0.40z"/>
  <path d="M470.50 19.50 c0 -3.90 0.90 -4.60 5.80 -4.40 l3.45 0.15 0.15 2.40 c0.10 1.60 -0.10 2.85 -0.65 3.65 -0.70 1.10 -1.10 1.20 -4.75 1.20 l-4 0 0 -3z"/>
 </g>
 <g fill="#ffffff">
  <path d="M0 270 l0 -270 480 0 480 0 0 270 0 270 -480 0 -480 0 0 -270z m484.95 246.60 c0.70 -1 3.90 -6.30 7.15 -11.80 3.30 -5.45 7.20 -11.85 8.75 -14.15 1.50 -2.35 3.30 -5.30 4 -6.60 0.70 -1.25 1.75 -3.20 2.40 -4.30 0.65 -1.10 1.20 -2.40 1.25 -2.90 0 -0.90 -3.10 -6.95 -4.25 -8.35 -0.35 -0.40 -2.10 -3.45 -3.85 -6.75 l-3.15 -6 0 -106.25 0 -106.25 1.40 -2.85 c1.75 -3.55 4.50 -6 8.25 -7.20 2.55 -0.85 4.50 -0.95 19.10 -0.95 8.95 0.05 27.85 0.25 42 0.45 23.50 0.40 25.80 0.40 26.40 -0.35 0.50 -0.60 0.65 -2.15 0.50 -5.95 l-0.15 -5.10 -1.50 -0.35 c-0.85 -0.20 -20.15 -0.50 -43 -0.60 -35.25 -0.20 -42.15 -0.35 -45.75 -1.05 -2.35 -0.45 -4.80 -1.20 -5.50 -1.70 -0.70 -0.55 -1.65 -2.15 -2.20 -3.70 -0.95 -2.60 -0.95 -2.85 -0.15 -4.55 0.45 -0.95 0.85 -1.90 0.85 -2.10 0 -0.20 1.15 -1.70 2.55 -3.35 2.35 -2.70 2.55 -3.05 2 -4.20 -0.90 -2.05 -0.65 -3.10 1.85 -6.75 1.30 -1.90 2.80 -4.25 3.35 -5.20 0.60 -0.90 1.40 -2.10 1.80 -2.60 0.85 -1 5.25 -8.45 6.55 -11.15 2.40 -4.85 4.25 -14.60 3.75 -19.40 -0.45 -4.20 -1.75 -7.95 -3.25 -9.55 -3.55 -3.80 -10.50 -5.90 -23.70 -7.30 -5.85 -0.60 -8.80 -0.65 -14.95 -0.25 -9.30 0.65 -18.60 2.45 -22.05 4.35 -4.40 2.40 -5.80 4.15 -6.90 8.45 -0.55 2.15 -1 4.80 -1 5.90 0 2.05 1.20 9.95 1.80 12 1.55 5.40 5.60 13.05 8.20 15.55 0.85 0.80 1.50 1.80 1.50 2.30 0 0.45 1.45 2.95 3.25 5.60 3.15 4.65 4.05 7.30 2.75 8.10 -1 0.60 -0.45 1.85 1.95 4.40 2.75 2.95 3.75 5.50 3.40 8.60 -0.30 3 -1.95 5.10 -4.40 5.75 -4.55 1.25 -14.50 1.60 -52.95 1.95 -22.15 0.25 -40.25 0.45 -40.25 0.50 0 0 -0.05 2.45 -0.15 5.35 -0.10 3.65 0.05 5.55 0.45 6.05 0.65 0.75 -2.70 0.75 65.65 -0.10 16.90 -0.20 19.60 0 23.55 1.75 2.70 1.25 4.45 3.15 6.05 6.75 1.55 3.55 1.40 -1.15 2.15 67.25 1.30 112.05 1.25 118.05 -0.70 140.55 -0.55 6.65 -0.90 8.70 -1.75 10.25 -0.60 1 -2 3.60 -3.10 5.65 -1.10 2.10 -2.50 4.65 -3.05 5.65 -2.45 4.10 -3.35 6 -3.35 6.90 0 0.55 1.50 3.50 3.40 6.55 1.85 3 3.80 6.20 4.30 7.10 0.55 0.90 2.15 3.40 3.55 5.60 1.40 2.20 3.45 5.60 4.50 7.50 1.05 1.95 2.85 4.95 4 6.75 1.15 1.80 2.70 4.30 3.45 5.65 0.75 1.30 1.50 2.35 1.70 2.35 0.20 0 0.90 -0.85 1.55 -1.90z m143.05 0.40 c3.40 -0.50 8.35 -1.75 14.55 -3.75 1.30 -0.40 4.55 -1.20 7.25 -1.75 3.95 -0.80 6.50 -1.75 12.70 -4.80 8.10 -3.95 13.15 -7.05 12.85 -7.90 -0.10 -0.30 -5 -0.50 -13.15 -0.60 -7.10 -0.05 -13.95 -0.35 -15.20 -0.60 -1.25 -0.30 -4.95 -1.05 -8.25 -1.60 -8.55 -1.55 -18.35 -4.10 -26.85 -6.95 -4.05 -1.40 -7.75 -2.75 -8.25 -3 -0.50 -0.25 -4.15 -2.10 -8.10 -4.05 -7.70 -3.80 -10.70 -5.75 -14.90 -9.70 -1.75 -1.60 -2.65 -2.85 -2.65 -3.60 0 -1.70 1.30 -1.55 5.80 0.55 3.50 1.65 6.55 2.75 24.70 8.95 3.70 1.30 7.20 2.55 7.75 2.80 1.40 0.60 9.60 3.15 15.40 4.70 4.80 1.35 5 1.35 17.50 1.15 6.90 -0.15 13.95 -0.50 15.60 -0.80 1.65 -0.30 5.35 -0.80 8.25 -1.05 5.65 -0.50 10.90 -2.10 12.65 -3.75 0.60 -0.55 1.65 -2.70 2.30 -4.75 0.65 -2.05 1.60 -4.65 2.10 -5.75 1.05 -2.15 2.45 -9.60 2.45 -12.95 0 -1.50 0.15 -1.85 0.50 -1.30 0.35 0.60 0.50 0.40 0.50 -0.75 0 -0.80 0.25 -4.05 0.50 -7.20 0.85 -9.45 -0.60 -24.10 -2.45 -24.80 -0.40 -0.15 -2.55 0.90 -4.75 2.40 -2.25 1.45 -5 3.05 -6.10 3.50 -1.15 0.40 -2.85 1.30 -3.80 2 -2.90 1.95 -17.10 6.50 -26.15 8.40 -3.80 0.80 -17.60 0.80 -23.25 0 -4.40 -0.60 -11.95 -2.15 -14.95 -3 -2.25 -0.70 -4.05 -2.45 -4.05 -3.95 l0 -1.25 7.40 0.45 c9.65 0.55 16.10 0.50 23.10 -0.20 5.55 -0.55 7.80 -1.15 16.25 -4.35 1.95 -0.75 4.40 -1.65 5.50 -2 7 -2.25 18.90 -10.05 24.30 -15.95 l2.55 -2.80 -0.25 -4.15 c-0.20 -3.80 -1.50 -11.30 -2.35 -13.60 -0.20 -0.55 -1.35 -5.15 -2.50 -10.25 -2 -8.90 -2.55 -10.80 -5.35 -18 -0.70 -1.80 -1.65 -4.30 -2.10 -5.60 -0.45 -1.30 -1.05 -2.40 -1.30 -2.40 -0.30 0 -1.75 1.40 -3.25 3.05 -1.50 1.70 -3.65 3.90 -4.75 4.90 -1.10 1 -3.35 3.05 -5 4.60 -3.85 3.55 -12.95 11.20 -15.95 13.40 -5.45 3.95 -15.35 9.05 -21.40 11 -4.10 1.30 -5 1.30 -6.30 0.20 -1.70 -1.55 -0.65 -3.70 2.95 -6.10 1.70 -1.15 3.20 -2.05 3.40 -2.05 0.15 -0.05 1.10 -0.70 2.05 -1.50 0.95 -0.85 1.95 -1.50 2.20 -1.50 0.25 0 1.95 -1.30 3.75 -2.90 1.80 -1.55 4.10 -3.45 5.05 -4.15 3.20 -2.40 13.10 -12.10 17.25 -16.95 4.90 -5.70 6.90 -8.75 9.95 -15.05 3.50 -7.35 3.65 -8.30 1.85 -13.95 -1.95 -6.40 -6.15 -18.15 -7.55 -21.25 -1.65 -3.70 -2.20 -5 -4.50 -10.50 -2.30 -5.45 -3.80 -7.90 -4.65 -7.60 -0.30 0.10 -0.85 1.05 -1.15 2.15 -0.60 1.95 -4.70 13.20 -6.55 17.95 -1.65 4.10 -6.15 13.25 -8.55 17.25 -3.40 5.65 -6.70 9.70 -12.35 15.40 -5.05 4.95 -6.50 5.85 -7.65 4.50 -1.20 -1.55 -1.10 -2.85 0.60 -6.45 0.95 -2.05 1.85 -4.25 2.05 -4.95 0.20 -0.70 1.90 -4.40 3.80 -8.20 1.90 -3.85 3.45 -7.15 3.45 -7.35 0 -0.25 1.05 -2.60 2.30 -5.30 5.10 -10.80 9.75 -23 10.95 -28.90 0.45 -1.90 0.95 -5.50 1.20 -7.95 0.50 -4.80 0.15 -6.40 -2.70 -14.05 -1.40 -3.65 -9.15 -19.35 -10.70 -21.65 -0.50 -0.75 -1.55 -2.35 -2.35 -3.60 -2.40 -3.75 -6.75 -9.05 -7.20 -8.75 -0.20 0.15 -0.45 4.60 -0.45 9.85 -0.10 12.15 -1.25 25.65 -2.60 29.35 -0.50 1.50 -0.95 2.85 -0.95 2.90 0 0.10 -0.20 0.15 -0.50 0.15 -1.60 0 -3.15 -5.75 -4.25 -15.75 -1.35 -12.40 -1.75 -17.80 -2 -29.25 -0.25 -11.35 -0.50 -13.65 -1.70 -16.65 -0.95 -2.45 -4.10 -7 -4.55 -6.55 -0.80 0.90 0.85 30.80 3.45 61.95 1.25 14.90 1.70 30.70 2.10 70 0.25 22.85 0.50 42.20 0.55 43 0.10 2.60 -1.10 21.85 -1.60 25.35 -0.70 4.85 -3.20 14.05 -4.90 18.15 -1.45 3.55 -1.85 4.40 -3.10 6.75 -0.40 0.70 -1 1.95 -1.40 2.75 -2.65 5.40 -14.50 19.05 -19.15 22.15 -0.75 0.45 -3.45 2.55 -6 4.65 -4.95 4 -11.40 7.50 -15.70 8.45 -1.35 0.30 -2.70 0.75 -3 1 -0.50 0.40 -4.85 1.50 -10.50 2.60 -1.35 0.25 -5.85 0.50 -10 0.50 -6.90 0.05 -7.80 -0.05 -11.50 -1.30 -2.20 -0.75 -4.45 -1.55 -5 -1.80 -1.70 -0.70 -4.40 -1.50 -4.60 -1.30 -0.25 0.25 2.80 6.25 4.35 8.55 0.75 1.10 1.75 2.75 2.20 3.70 l0.90 1.65 -1.90 3.10 c-1.05 1.65 -2.40 3.70 -3.05 4.50 -0.95 1.10 -1.05 1.55 -0.60 2.10 0.35 0.40 1 0.60 1.50 0.45 0.55 -0.20 2.20 -0.05 3.70 0.30 2.25 0.50 2.95 0.90 3.75 2.20 0.55 0.90 1 1.95 1 2.35 0 0.45 2.15 3.20 4.75 6.15 4.80 5.50 5.70 6.10 11.50 8.30 1.65 0.65 3.25 1.30 3.50 1.50 0.30 0.20 1.50 0.50 2.75 0.70 1.25 0.20 2.50 0.55 2.75 0.75 0.30 0.25 2.90 0.85 5.80 1.45 2.90 0.55 5.80 1.20 6.50 1.45 0.65 0.25 2.65 0.65 4.45 0.85 1.80 0.20 5.95 0.85 9.25 1.50 8.05 1.55 10.65 1.80 11 1.25 0.15 -0.30 -4.75 -5.50 -10.90 -11.60 -11.60 -11.50 -15.70 -16.25 -17.40 -20.25 -1.10 -2.65 -1.10 -4.80 0.10 -5.05 0.40 -0.05 1.55 0.45 2.50 1.10 0.90 0.70 2.15 1.50 2.70 1.75 0.55 0.25 2.90 2.50 5.25 5.05 7.60 8.30 14.15 14.30 19 17.50 0.60 0.40 1.45 1.05 1.85 1.45 0.45 0.40 1.60 1.15 2.60 1.70 1 0.50 2.25 1.35 2.80 1.80 1.15 0.95 2.05 1.45 5.80 3.30 1.50 0.75 3.15 1.60 3.70 1.90 0.55 0.30 2.90 1 5.25 1.55 3.55 0.90 5.60 1.05 12.25 0.95 4.40 -0.10 9.70 -0.40 11.75 -0.65z m-264.55 -1.30 c11 -2.75 21.35 -9.85 38.80 -26.60 9.65 -9.30 11.65 -10.50 12.85 -7.80 0.50 1.05 0.40 1.65 -0.80 3.85 -2.05 3.95 -3.30 5.85 -6.30 9.60 -2.95 3.65 -15.95 16.85 -19.50 19.75 -2.80 2.25 -1.85 2.45 3.90 0.85 2.40 -0.70 5.65 -1.40 7.25 -1.55 3.10 -0.35 11.90 -1.95 22.35 -4.15 7.70 -1.60 17.35 -5.25 18.75 -7.10 0.55 -0.70 2.50 -3.05 4.40 -5.20 1.85 -2.20 3.35 -4.30 3.35 -4.70 0 -0.45 0.45 -1.55 1.05 -2.45 1.10 -1.85 3.25 -2.70 6.85 -2.70 3 0 2.85 -1.05 -1.10 -6.95 -1 -1.45 -1.80 -3.05 -1.80 -3.55 0 -0.50 0.95 -2.35 2.15 -4.10 2.55 -3.70 6.10 -10.30 5.75 -10.65 -0.25 -0.25 -6.45 1.85 -7.95 2.70 -1.90 1.10 -9.55 2.20 -15.20 2.25 -5.75 0.05 -15.80 -1.25 -17 -2.20 -0.25 -0.25 -1.95 -0.80 -3.75 -1.25 -1.80 -0.45 -3.90 -1.25 -4.75 -1.75 -0.80 -0.45 -2.35 -1.15 -3.40 -1.50 -1 -0.30 -2.90 -1.30 -4.25 -2.20 -1.30 -0.90 -3.35 -2.10 -4.60 -2.70 -2.65 -1.30 -8.85 -6.45 -14.10 -11.70 -2.05 -2.05 -5.70 -6.60 -8.10 -10.20 -8.80 -13 -8.30 -12.10 -10.85 -21.20 -1.95 -7.10 -2.40 -10.95 -2.90 -23.25 -0.55 -12.70 0.20 -96.05 0.95 -106.25 0.25 -4 0.70 -11.40 1 -16.50 0.25 -5.10 0.85 -13.40 1.30 -18.50 1.25 -14.30 1.25 -14.55 1.70 -26.50 0.20 -6.20 0.55 -13.45 0.75 -16.10 0.35 -4.35 0.30 -4.90 -0.40 -4.90 -0.45 0 -1.30 0.95 -1.90 2.10 -0.60 1.20 -1.45 2.60 -1.95 3.15 -1.65 1.90 -2.15 5.35 -2.55 17.75 -0.70 20.85 -0.90 25.60 -1.45 29.75 -1.20 9.15 -3.05 16 -4.20 15.60 -2.40 -0.80 -4.10 -13.35 -4.25 -31.10 -0.10 -8.70 -0.30 -11.25 -1 -11.25 -1 0.05 -4.05 4.10 -6.15 8.25 -0.60 1.10 -1.75 3.15 -2.65 4.50 -0.90 1.40 -2.20 3.50 -2.80 4.75 -0.65 1.25 -1.90 3.35 -2.80 4.75 -0.90 1.35 -1.65 2.75 -1.65 3.05 0 0.30 -0.45 1.15 -1 1.85 -0.55 0.70 -1.95 3.50 -3.10 6.20 -2.25 5.40 -2.45 7.25 -1.80 17.50 0.40 5.50 2.85 16.20 4.45 19.30 0.50 1.05 0.95 2.10 0.95 2.40 0 1.50 9.75 23.05 10.55 23.35 0.25 0.10 0.45 0.45 0.45 0.75 0 0.30 1 2.60 2.25 5.20 1.25 2.55 2.25 4.95 2.25 5.30 0 0.35 0.40 1.45 0.90 2.45 0.55 1 1.25 2.85 1.60 4.15 0.55 2 0.55 2.40 -0.10 3.10 -1.40 1.35 -3.40 -0.10 -8 -5.90 -5.90 -7.45 -9.80 -12.80 -11.80 -16.45 -1.15 -2.05 -2.70 -4.65 -3.35 -5.75 -0.70 -1.10 -1.85 -3.10 -2.55 -4.50 -0.70 -1.35 -1.80 -3.50 -2.45 -4.75 -0.70 -1.25 -1.25 -2.65 -1.25 -3.10 0 -0.50 -0.20 -0.90 -0.50 -0.90 -0.25 0 -0.50 -0.40 -0.50 -0.85 0 -0.50 -1 -3.80 -2.20 -7.40 -1.45 -4.35 -2.45 -6.55 -2.95 -6.65 -0.60 -0.10 -1.55 1.40 -3.55 5.50 -5.10 10.70 -6.95 14.65 -7.60 16.60 -0.40 1.10 -0.90 2.20 -1.15 2.50 -0.25 0.30 -1 2.15 -1.70 4.05 -0.70 1.95 -2.05 5.75 -3.05 8.50 -2.25 6.25 -2.30 8.35 -0.25 12.40 0.85 1.70 1.90 3.30 2.25 3.50 0.40 0.20 0.70 0.70 0.70 1 0 0.90 4.40 7.45 9.60 14.40 5.35 7.10 16 17.30 20.85 19.90 0.70 0.40 1.40 0.85 1.55 1.05 0.40 0.60 13 9 13.50 9 0.25 0 0.70 0.85 0.95 1.85 0.95 3.40 -1.20 4.40 -6.20 2.90 -3.15 -0.95 -9.95 -3.85 -10.15 -4.35 -0.10 -0.25 -0.45 -0.40 -0.80 -0.40 -0.80 0 -7.45 -3.45 -9.90 -5.10 -3.65 -2.50 -14.85 -12.50 -24.25 -21.70 -3.50 -3.35 -6.50 -6.05 -6.75 -5.90 -0.20 0.15 -0.60 1.20 -0.90 2.35 -0.30 1.15 -0.85 2.85 -1.25 3.75 -1.10 2.35 -6.65 25.10 -7.25 29.60 -0.30 2.05 -0.70 4.30 -1 5 -0.75 2 -2.50 10.85 -2.50 12.60 0 2.30 3.65 5.85 13.50 13 3.40 2.45 5.75 3.75 12.50 6.80 3.50 1.60 10.85 3.70 17.50 5.05 9.45 1.90 14.80 2.30 22.85 1.65 4.05 -0.35 8.60 -0.60 10.05 -0.60 2.30 0 2.60 0.10 2.60 1.05 0 1.35 -2.65 3.95 -4 3.95 -0.60 0 -1.45 0.20 -1.95 0.45 -2.65 1.45 -20.10 3.20 -26.80 2.75 -8.45 -0.55 -24.20 -4.30 -30.40 -7.25 -1.70 -0.80 -3.35 -1.45 -3.70 -1.45 -0.95 0 -12.70 -5.35 -13.70 -6.30 -1.90 -1.70 -2.70 0.45 -3.80 10.05 -0.80 6.95 -0.05 18.25 1.60 24.50 0.35 1.40 1 4.50 1.50 7 0.45 2.45 1 4.70 1.20 5 0.25 0.25 1.05 2.45 1.75 4.80 0.75 2.40 1.75 4.70 2.25 5.15 1.25 1.15 8.05 2.75 13 3.10 2.40 0.15 5.45 0.50 6.80 0.75 9.15 1.65 25.40 2.05 30.25 0.70 1.50 -0.40 6.70 -1.75 11.50 -3 15.85 -4.10 19.45 -5.45 32.20 -11.80 5.25 -2.65 7.65 -3.55 9.80 -3.80 3.45 -0.35 4 0.20 2.50 2.60 -1.25 2.05 -7.60 7.80 -9.85 8.95 -0.90 0.45 -2.45 1.40 -3.50 2.10 -2.55 1.75 -11.95 6.10 -15.40 7.20 -1.10 0.35 -2.20 0.80 -2.45 1.05 -0.30 0.25 -0.90 0.45 -1.40 0.45 -0.50 0 -2.50 0.55 -4.50 1.20 -4.80 1.55 -12.40 3.60 -16.15 4.30 -1.65 0.35 -3.95 0.90 -5.05 1.25 -2.90 0.95 -17.50 2.35 -26.35 2.50 -4.10 0.10 -7.55 0.30 -7.75 0.50 -0.45 0.40 2.15 2.45 5.25 4.10 1.45 0.75 2.65 1.55 2.65 1.80 0 0.20 0.25 0.35 0.55 0.35 0.90 0 5.45 2.20 5.45 2.60 0 0.25 0.25 0.40 0.60 0.40 0.30 0 1.50 0.45 2.60 0.95 2.40 1.15 14.90 3.90 24.55 5.45 13.85 2.25 17.80 2.25 25.70 0.30z m390.05 -131 c0.55 -1.60 0.50 -1.90 -0.55 -3 -0.60 -0.65 -2.40 -2.05 -3.90 -3.05 -1.55 -1.05 -3 -2.10 -3.30 -2.40 -0.25 -0.30 -2 -1.50 -3.85 -2.70 -2.85 -1.85 -4.55 -3.75 -3.80 -4.25 0.40 -0.30 9.65 -2.30 13.90 -3.05 2.60 -0.45 5.10 -1 5.50 -1.20 0.45 -0.25 0.75 -1.15 0.75 -2.35 l0 -1.95 -2.50 0.05 c-2.25 0.10 -12.30 2.25 -18.45 4 -4.85 1.35 -6.10 1.05 -10.30 -2.45 -4.45 -3.70 -5.35 -5.25 -4.50 -7.40 0.70 -1.60 0.40 -2.95 -0.70 -2.95 -0.85 0 -1.65 2.15 -2.10 5.40 -0.60 4.85 1.20 6.60 20.80 20.85 1.90 1.40 5.30 3.90 7.55 5.65 2.20 1.70 4.25 3 4.45 2.85 0.25 -0.15 0.70 -1.05 1 -2.05z m-515.85 -3.35 c0.15 -0.40 0.10 -1.40 -0.05 -2.30 -0.30 -1.45 -0.75 -1.80 -4.30 -3.35 -2.20 -0.95 -4.20 -1.70 -4.50 -1.70 -0.30 0 -1.10 -0.30 -1.80 -0.65 -0.70 -0.35 -3.05 -1.30 -5.25 -2.05 -5.60 -1.95 -6 -2.40 -6.70 -6.85 -0.35 -2.05 -1.05 -5.25 -1.60 -7.15 -0.55 -1.85 -0.90 -3.70 -0.75 -4.05 0.20 -0.65 4.70 -4.15 11.50 -9.10 1.95 -1.40 4.20 -3.10 4.95 -3.75 l1.45 -1.20 -0.85 -2.60 c-0.50 -1.45 -1.15 -2.60 -1.55 -2.60 -0.40 0 -0.70 0.20 -0.70 0.45 0 0.25 -0.45 0.60 -0.95 0.80 -1.05 0.30 -13 9 -20.70 15 -2.90 2.25 -7.45 5.45 -10.15 7.05 -0.95 0.55 -2.25 1.50 -2.95 2.10 -1.10 0.95 -1.15 1.20 -0.65 2.70 0.75 2.20 1.70 3.25 3.30 3.55 3.30 0.70 6.50 1.65 7.15 2.15 0.40 0.30 1.25 0.75 1.95 0.95 1.75 0.50 9.65 3.85 10.30 4.35 0.30 0.20 1.50 0.75 2.70 1.15 2.20 0.80 5.55 2.25 8.25 3.60 0.85 0.40 2.75 1.15 4.25 1.65 1.50 0.50 3.45 1.25 4.25 1.70 1.85 0.95 3.05 1 3.40 0.15z m523 -25.50 c0.60 -1.90 0.15 -3.45 -1.65 -5.35 -1.65 -1.75 -1.60 -2.55 0.10 -2.15 1.70 0.45 2.40 -1.05 2.40 -5.05 -0.05 -3.20 -0.10 -3.45 -0.75 -2.60 -0.40 0.50 -0.80 1.20 -0.90 1.50 -0.25 0.75 -4.55 0.60 -13.85 -0.50 -4.25 -0.50 -8.65 -0.90 -9.75 -0.95 -2 0 -2 0 -2.15 2.05 -0.10 1.25 0.10 2.25 0.50 2.55 0.35 0.30 4.35 0.90 8.90 1.35 6.60 0.65 8.70 1.05 10.50 2 2.65 1.35 3.50 3.10 2.65 5.30 -0.60 1.55 -0.15 2.60 1.35 3.15 1.35 0.50 2.15 0.10 2.65 -1.30z m-571.25 -24.20 c0.10 -0.60 0.65 -1.15 1.25 -1.35 0.60 -0.10 9.75 -0.40 20.30 -0.60 l19.15 -0.35 -0.25 -2 c-0.45 -3.15 -0.85 -3.35 -6.50 -2.70 -6 0.65 -6.70 0.30 -4.45 -2.50 0.85 -1.05 3.70 -4 6.30 -6.55 2.65 -2.55 4.80 -4.95 4.80 -5.30 0 -0.35 -0.55 -1.25 -1.25 -2 -1.75 -1.90 -2.60 -1.45 -6.45 3.10 -1.75 2.15 -4.25 4.85 -5.55 6.05 l-2.35 2.15 -1.55 -1.40 c-0.85 -0.80 -3 -3 -4.85 -4.85 -3.40 -3.50 -4.20 -3.75 -5.40 -1.80 -0.90 1.40 -0.45 1.95 5.25 6.70 4.35 3.60 6.15 5.45 6.15 6.35 0 0.25 -6.05 0.40 -13.45 0.40 -7.85 0 -13.60 0.20 -13.80 0.45 -0.15 0.30 0 2.10 0.30 4.05 0.50 2.80 0.75 3.50 1.40 3.40 0.45 -0.10 0.85 -0.65 0.95 -1.25z m573.05 -14.20 c0.50 -0.85 1.20 -2.55 1.55 -3.75 0.80 -2.80 -0.05 -5.95 -2.25 -8.35 -1.30 -1.40 -2.15 -1.80 -4.90 -2.35 -4.90 -0.90 -6.30 -0.05 -9.60 5.80 -1.40 2.45 -3.10 4.75 -3.80 5.15 -1.75 1 -3.85 0.35 -4.50 -1.30 -0.40 -1.15 -0.25 -1.85 1.25 -4.65 l1.70 -3.30 -1.45 -1.60 c-0.85 -0.90 -1.80 -1.60 -2.15 -1.60 -1.30 0 -2.05 2.55 -2.05 7 0.05 3.60 0.25 4.60 1.20 6.20 1.60 2.55 3.75 3.80 6.65 3.80 2 0 2.70 -0.25 4.30 -1.70 1.05 -0.95 2.40 -2.80 3.10 -4.10 1.75 -3.55 4.80 -6.70 6.50 -6.70 2.95 0 3.55 2.75 1.55 6.75 -0.85 1.65 -1.55 3.15 -1.55 3.30 0 0.70 2.10 2.95 2.80 2.95 0.40 0 1.15 -0.70 1.65 -1.55z m-537.85 -13.70 c2.90 -1 4.70 -2.90 5.45 -5.75 0.60 -2.35 0.15 -4.20 -1.85 -6.85 -0.75 -1.05 -0.75 -1.15 0.45 -1.70 1 -0.45 1.25 -1 1.50 -3.35 0.15 -1.55 0.20 -2.90 0.10 -3.05 -0.10 -0.10 -0.90 0.10 -1.75 0.45 -1.15 0.50 -3.90 0.55 -11.45 0.25 -8.60 -0.30 -10.10 -0.25 -11.45 0.45 -2.80 1.45 -3.85 4.65 -3.15 9.55 0.45 3.10 1.80 6.20 2.40 5.55 0.45 -0.40 0.55 -4.30 0.15 -4.30 -0.20 0 -0.60 -0.55 -0.90 -1.25 -0.50 -1.05 -0.45 -1.60 0.15 -2.75 1.05 -2.05 2.15 -2.50 6 -2.50 3.25 0 3.35 0.05 3.10 1.15 -1.20 4.80 -0.70 8.40 1.50 11.10 1.45 1.70 2.15 2.20 4.65 3.10 2.25 0.80 2.40 0.80 5.10 -0.10z m538.55 -8.35 c0.20 -1.20 0.05 -2 -0.30 -2.25 -0.95 -0.60 -6.90 -2.65 -9.35 -3.25 -1.25 -0.30 -2.50 -0.75 -2.85 -1 -0.30 -0.25 -2 -0.85 -3.70 -1.35 -1.75 -0.50 -3.25 -1.15 -3.35 -1.45 -0.10 -0.30 1.05 -1.30 2.50 -2.20 1.45 -0.90 3.10 -1.95 3.65 -2.30 0.55 -0.35 2.35 -1.30 4 -2.10 1.65 -0.85 3.35 -1.70 3.75 -1.95 0.40 -0.20 1.45 -0.75 2.25 -1.20 1.80 -0.95 2.10 -2.25 1 -4.30 l-0.80 -1.55 -2.35 1.35 c-4.20 2.35 -10.80 6.20 -12.60 7.25 -0.95 0.55 -2.70 1.55 -3.80 2.15 -1.15 0.60 -2.55 1.45 -3.20 1.90 -1.15 0.80 -1.45 0.75 -5.95 -0.90 -5.85 -2.15 -7.55 -3.60 -7.55 -6.60 0 -1.85 -0.15 -2.20 -0.85 -2.05 -1.15 0.20 -1.45 3.45 -0.65 6.45 1 3.75 4.10 5.65 15 9.20 3.15 1.05 6.45 2.20 7.25 2.55 0.85 0.35 3.40 1.30 5.75 2.15 2.35 0.80 5.85 2.05 7.75 2.70 1.95 0.70 3.65 1.15 3.80 0.95 0.20 -0.20 0.45 -1.20 0.60 -2.20z m-556.65 -21.15 c0 -0.30 0.30 -0.95 0.65 -1.40 0.55 -0.85 0.95 -0.85 5.60 -0.10 9.70 1.50 13.80 1.80 16.60 1.20 3.10 -0.70 3.15 -0.85 1.45 -5.75 -1.40 -3.95 -2.65 -4.65 -2.40 -1.35 0.15 1.75 0 2.10 -0.95 2.40 -1.30 0.45 -7.40 -0.10 -12.20 -1 -1.90 -0.35 -4.45 -0.85 -5.60 -1 l-2.10 -0.35 -0.15 -2.55 c-0.15 -2.20 -0.30 -2.60 -1.15 -2.60 -0.60 0 -1.05 0.40 -1.15 1 -0.60 3.90 -0.80 4 -5.85 2.70 -2.15 -0.55 -4.15 -0.90 -4.55 -0.75 -0.85 0.35 -0.40 4.35 0.60 5.15 0.45 0.30 2.15 0.70 3.85 0.90 3.90 0.45 4.65 0.85 5 2.70 0.25 1.10 0.60 1.45 1.35 1.40 0.55 -0.05 1 -0.30 1 -0.60z m531 -5.45 c0 -0.40 -0.20 -0.90 -0.50 -1.05 -1 -0.60 -0.50 -2.15 0.90 -2.65 3.35 -1.35 17.15 -4.25 18.20 -3.85 0.45 0.20 1.10 1.20 1.55 2.30 0.55 1.45 1.05 1.95 1.85 1.95 1.05 0 1.10 -0.15 0.80 -2.15 -0.40 -2.70 0.05 -3.20 3.70 -3.60 1.50 -0.20 3.60 -0.55 4.60 -0.80 l1.85 -0.45 -1.35 -2.25 c-1.50 -2.50 -1.50 -2.50 -6.35 -1.50 l-3.50 0.70 -1.25 -1.50 c-1.65 -1.95 -2.50 -1.85 -2.50 0.25 0 1.95 0.15 1.90 -6 3.05 -10.05 1.85 -13.75 2.90 -15.85 4.35 -1.20 0.80 -2.15 1.65 -2.15 1.90 0 0.20 1 1.65 2.30 3.20 2.20 2.70 3.70 3.55 3.70 2.10z m-509.05 -10.65 c1.55 -0.50 2.90 -1.05 2.95 -1.30 0.10 -0.20 0.85 -0.70 1.65 -1.10 1.80 -0.95 3.45 -4.10 3.45 -6.60 0 -2.05 -2.45 -7.40 -3.25 -7.10 -0.30 0.10 -0.40 1.60 -0.30 3.35 0.15 3.10 0.15 3.15 -1.90 5.10 -1.50 1.45 -2.70 2.05 -4.85 2.50 -2.60 0.55 -2.95 0.50 -3.55 -0.30 -0.35 -0.50 -0.65 -1.40 -0.65 -1.95 0 -0.60 -0.25 -1.75 -0.50 -2.55 -0.30 -0.80 -0.90 -3.70 -1.40 -6.40 -1 -5.55 -1.20 -5.75 -4.70 -4.50 -4.35 1.50 -6.85 4.85 -6.90 9.05 0 3.65 2.60 8.55 5.35 10 5.05 2.75 9.65 3.30 14.60 1.80z m512.60 -7.55 c1.30 -1.35 2.20 -3.10 3.20 -6.30 0.95 -2.90 1.85 -4.85 2.85 -5.85 1.65 -1.65 2.70 -1.80 4.30 -0.65 1.40 0.95 1.40 2.65 0.10 6.50 l-1 2.95 1.10 0.85 c1.60 1.25 2.95 1.60 3.40 0.90 0.20 -0.30 0.65 -1.80 1 -3.25 0.85 -3.45 -0.20 -6.75 -2.85 -9.10 -3.20 -2.90 -8.50 -2.95 -11.40 -0.15 -1.80 1.75 -2.30 2.80 -3.25 7 -1.05 4.80 -2.95 6.55 -5.55 5.20 -1.95 -0.95 -2.30 -3.55 -0.90 -6.30 l1.05 -2.10 -1.80 -1.70 c-1.05 -0.90 -2.10 -1.60 -2.45 -1.45 -1.10 0.35 -1.55 4.60 -0.90 7.60 0.75 3.30 2.85 5.95 5.80 7.35 2.85 1.35 5.05 0.90 7.30 -1.50z m-96.70 -0.55 c3.90 -1.95 5.35 -3.30 9.15 -8.75 4.80 -6.80 6.90 -14.85 5.50 -20.85 -1.85 -7.90 -7.10 -13.70 -16.40 -18.20 -6.10 -3 -12.60 -2.90 -19.50 0.30 -1.75 0.80 -3.30 1.45 -3.40 1.45 -0.15 0 -1.45 0.75 -2.85 1.70 -3.25 2.05 -6.75 5.45 -9.15 8.85 l-1.85 2.65 0.35 8.40 c0.35 7.95 1.10 12.60 2.35 15.05 0.55 1 0.60 1 1.25 0.10 0.50 -0.70 0.70 -2.80 0.75 -7.45 0.05 -8.70 0.45 -11.50 1.60 -11.70 2.35 -0.45 4 1.15 10.85 10.40 4.65 6.25 6.75 9.55 9 14 3 6 3.15 6.15 6.55 5.85 1.65 -0.15 3.95 -0.85 5.80 -1.80z m-313.45 1.15 c1.20 -0.25 1.95 -0.95 3.30 -3.20 1 -1.60 1.80 -3.05 1.80 -3.25 0 -0.95 7.35 -12.50 10.35 -16.25 4.70 -5.90 5.30 -6.50 6.45 -6.50 1.85 0 2.30 1.65 2.70 9.65 0.25 4.10 0.50 7.55 0.65 7.65 0.60 0.60 1.80 -0.60 2.55 -2.45 1.10 -2.90 1.15 -18.05 0.10 -20.60 -2.30 -5.45 -7.40 -9.85 -15.80 -13.55 -5.05 -2.20 -8.40 -2.80 -12.80 -2.15 -3.30 0.45 -9.10 2.90 -10.25 4.25 -0.30 0.40 -0.90 0.70 -1.25 0.70 -0.90 0 -7.75 6.90 -8.70 8.75 -0.40 0.85 -0.85 1.60 -1 1.75 -1.85 1.75 -2.15 11.10 -0.50 15.95 1.20 3.60 2.95 6.50 7.15 11.65 3.25 4.05 6.60 6.30 11.15 7.35 2.60 0.60 2.40 0.60 4.10 0.25z m-94.05 -18.45 c0.95 -0.40 2.15 -0.75 2.65 -0.75 0.95 0 3.75 -3.25 4.55 -5.35 0.25 -0.75 0.35 -2.25 0.15 -3.35 -0.35 -2.15 -2.05 -5.80 -2.70 -5.80 -0.20 0 -0.35 1.40 -0.30 3.15 0.10 4.80 -1.45 6.40 -7.20 7.30 -4.35 0.70 -4.30 0.75 -4.60 -8.20 -0.20 -5 -0.50 -8.05 -0.85 -8.40 -0.35 -0.35 -1.55 -0.60 -2.70 -0.55 -4.20 0.10 -9.35 4.90 -9.35 8.70 0 2.05 1.50 6.75 2.75 8.65 1.10 1.70 4.10 3.70 6.80 4.55 3 0.95 8.55 1 10.80 0.05z m490.05 -0.70 c-0.45 -0.75 -0.45 -1.15 0.05 -1.75 0.65 -0.75 9.30 -3.80 10.80 -3.80 0.40 0 0.75 -0.20 0.75 -0.45 0 -0.25 1.25 -0.75 2.80 -1.05 3.75 -0.80 8.30 -2.40 8.75 -3.05 0.40 -0.65 -2.15 -5.90 -3.15 -6.50 -1.05 -0.70 -1.30 -0.55 -1.05 0.70 0.15 0.65 -0.05 1.40 -0.45 1.70 -0.60 0.50 -11.10 4.05 -19.75 6.70 -4 1.20 -4.15 1.45 -2.75 4.35 1.60 3.25 2.30 4.10 3.45 4.10 1 0 1.10 -0.10 0.55 -0.95z m32.30 -12.35 c1 -0.40 1 -1.70 0.10 -3.95 -0.65 -1.55 -1 -1.75 -2.50 -1.75 -0.95 0 -1.85 0.20 -2 0.45 -0.45 0.70 0.70 3.70 1.80 4.70 1.10 0.95 1.40 1 2.60 0.55z m-37.90 -2.20 c-0.25 -1.30 -0.05 -1.50 2.60 -2.65 11.10 -4.85 14.55 -6.35 14.80 -6.35 1.15 0 19.60 -8.30 20.05 -9 0.35 -0.55 -1.95 -5.25 -2.85 -5.80 -0.35 -0.20 -0.80 0 -1.10 0.55 -0.30 0.50 -1.05 1.40 -1.65 2 -1.45 1.40 -9.95 4.95 -10.90 4.55 -0.50 -0.15 -0.75 -0.95 -0.75 -2.15 0 -2.35 -0.05 -2.40 -3.75 -5.65 -4.10 -3.55 -6.40 -4.65 -8.95 -4.35 -8.75 1.05 -15.40 8.05 -14.70 15.45 0.25 2.20 0.55 2.80 2.85 5.05 2.25 2.20 2.50 2.65 1.85 3.15 -1 0.70 -1 1.40 -0.10 3.10 0.40 0.75 0.95 2 1.25 2.75 0.70 1.75 1.75 1.25 1.35 -0.65z m-472.60 -6.90 c0.10 -0.20 0.35 -1.20 0.55 -2.20 l0.35 -1.80 -3.70 -2.15 c-2 -1.20 -3.85 -2.35 -4.15 -2.60 -0.25 -0.20 -1.70 -1.15 -3.20 -2.10 -4.10 -2.60 -7.05 -5.60 -7.05 -7.15 0 -1.90 1.75 -4.50 3.25 -4.90 3.35 -0.85 7.55 0.95 17.75 7.65 1.80 1.20 3.35 2.15 3.50 2.15 0.25 0 1.60 -5.10 1.35 -5.25 -0.05 -0.05 -1.80 -1.05 -3.85 -2.20 -5.55 -3.10 -10.45 -6.20 -12.60 -8 -1.55 -1.35 -1.90 -1.95 -1.90 -3.45 0 -2.45 2.15 -4.90 4.70 -5.35 2.60 -0.50 8.35 2.40 14.95 7.65 1.85 1.40 3.65 2.60 4 2.60 0.40 0 1.10 -0.90 1.60 -2 0.50 -1.10 1.20 -2.25 1.60 -2.55 0.75 -0.65 0.90 -3.45 0.20 -3.45 -0.30 0 -0.80 0.40 -1.15 0.90 -0.80 1.10 -2.45 1.80 -2.85 1.15 -0.15 -0.25 -1.75 -1.45 -3.55 -2.65 -1.80 -1.20 -4.35 -2.95 -5.75 -3.95 -1.35 -0.95 -3.90 -2.25 -5.60 -2.90 -4.20 -1.55 -6.10 -0.90 -9.60 3.25 -0.95 1.10 -1.40 6.70 -0.60 6.70 0.35 0 0.55 0.55 0.45 1.30 -0.10 1 -0.60 1.50 -2.20 2.15 -2.70 1.05 -4.55 2.60 -5.20 4.25 -0.25 0.75 -0.50 3.05 -0.50 5.10 0 2.90 -0.15 3.70 -0.70 3.70 -0.40 0 -0.90 -0.20 -1.05 -0.50 -0.15 -0.25 -0.70 -0.50 -1.20 -0.50 -0.60 0 -1.40 1.05 -2.45 3.35 -0.85 1.85 -1.45 3.50 -1.30 3.75 0.15 0.20 0.90 0.05 1.70 -0.35 0.80 -0.40 1.70 -0.75 2 -0.75 1.35 0 19 9.80 19.75 11 0.35 0.60 2.10 0.70 2.45 0.10z m459.65 -21.60 c-0.40 -1.80 0.50 -2.50 4.45 -3.65 4 -1.15 10.30 -4.25 11.75 -5.75 2.70 -2.75 3.95 -6.85 3 -9.70 -0.40 -1.20 -1.45 -2.25 -3.70 -3.80 -1.70 -1.15 -3.50 -2.10 -3.95 -2.10 -1.55 0 -1.50 -1 0.15 -1.90 0.85 -0.45 2.15 -1.30 2.90 -1.85 0.70 -0.60 3.85 -2.50 6.95 -4.25 3.05 -1.75 5.60 -3.35 5.60 -3.60 0 -0.55 -5.15 -6.80 -5.65 -6.85 -0.20 -0.05 -0.35 0.90 -0.25 2 0.05 1.55 -0.15 2.25 -0.85 2.80 -3.10 2.25 -29.65 17.75 -32.05 18.65 -0.65 0.25 -1.20 0.85 -1.20 1.30 0 1.10 1.90 3.70 2.75 3.70 0.40 0 4 -1.85 8.05 -4.10 6.55 -3.65 7.65 -4.15 10.40 -4.30 2.80 -0.20 3.15 -0.10 4.50 1.20 1.25 1.30 1.40 1.70 1.20 4 -0.15 1.75 -0.60 3.10 -1.45 4.10 -1.50 1.95 -6.45 4.60 -12.25 6.65 -6.20 2.15 -6.20 2.15 -3.65 5.85 2.35 3.40 3.75 4.10 3.30 1.60z m-436.35 -19.85 c2.05 -4.45 2.10 -7.30 0.05 -5.45 -0.95 0.85 -2.35 1.05 -2.75 0.35 -0.15 -0.20 -1.80 -1.40 -3.65 -2.65 -1.90 -1.25 -3.95 -2.60 -4.65 -3.05 -0.70 -0.45 -2.35 -1.60 -3.75 -2.50 -4.55 -3 -6.70 -4.35 -7.15 -4.35 -0.60 0 -2.40 2.55 -3.25 4.60 -0.85 1.95 -0.50 3.10 0.65 2.40 1.90 -1.20 2.50 -0.90 15.05 7.40 3.90 2.50 7.45 4.60 7.90 4.60 0.50 0 1.20 -0.60 1.55 -1.35z m410.50 -11.10 c1.25 -0.25 3.60 -0.80 5.25 -1.20 1.65 -0.45 4.15 -1.05 5.50 -1.35 1.40 -0.30 4.75 -1.15 7.50 -1.80 2.75 -0.70 6.85 -1.60 9.15 -2.05 4.45 -0.85 4.90 -1.35 3.45 -4.15 -0.75 -1.50 -1.60 -1.50 -8.35 0.35 -10.65 2.85 -12.20 3.15 -12.70 2.65 -0.55 -0.55 2.70 -7.80 5.65 -12.50 4 -6.40 3.90 -5.90 1.85 -7.95 -1.15 -1.15 -1.95 -1.60 -2.25 -1.30 -0.30 0.30 -2.35 4.10 -4.55 8.50 -2.25 4.40 -4.25 8.20 -4.45 8.50 -0.20 0.25 -0.90 1.80 -1.55 3.40 -0.60 1.60 -1.50 3.10 -1.95 3.30 -1.30 0.70 -8.50 2.05 -10.85 2.05 -2 0 -2.30 -0.15 -3.50 -2 -1.40 -2.15 -1.55 -2.20 -2.60 -1.55 -1.55 0.95 2.80 6.40 5.95 7.45 1.70 0.55 4.35 0.45 8.45 -0.35z m-402.05 -2.60 c1.15 -2.15 1.05 -2.65 -0.80 -4.10 -2.15 -1.75 -7.90 -7.05 -10.50 -9.85 -2.30 -2.40 -2.65 -3 -2.65 -4.75 0 -3.45 3.70 -6.05 7.45 -5.20 0.95 0.20 1.85 0.60 2.05 0.90 0.15 0.30 1 1.05 1.80 1.70 0.85 0.60 3.40 3.25 5.70 5.85 2.25 2.60 4.30 4.95 4.50 5.20 1 1.05 6.35 -5.10 5.75 -6.55 -0.25 -0.70 -0.45 -0.65 -1.45 0.30 -1.50 1.40 -2.25 1.05 -5 -2.45 -6.40 -8.15 -10 -10.95 -14.20 -11.15 -1.95 -0.10 -2.85 0.20 -4.40 1.25 -2.60 1.80 -3.60 3.65 -3.90 7.15 -0.15 1.55 -0.40 3 -0.55 3.15 -0.15 0.20 -1 -0.05 -1.85 -0.55 -1.25 -0.70 -1.65 -0.75 -2.30 -0.25 -0.95 0.80 -4.25 5.90 -4 6.20 0.10 0.10 1 -0.10 2.05 -0.40 1.65 -0.50 1.95 -0.45 3.70 0.85 1.05 0.75 2.25 1.80 2.65 2.25 0.40 0.45 2.10 1.95 3.75 3.35 1.65 1.45 4.55 4.05 6.45 5.85 1.90 1.80 3.70 3.30 4.05 3.30 0.35 0 1.15 -0.90 1.70 -2.05z m-37.70 -4.95 c1.55 -2.45 1.55 -2.40 0.05 -4.45 l-1.25 -1.65 -1 2 c-0.55 1.15 -1.25 2.15 -1.55 2.35 -0.80 0.50 -0.60 1.65 0.60 2.75 1.50 1.35 1.70 1.30 3.15 -1z m432 -9.95 c-0.35 -1.65 0.75 -2.85 7.65 -8.20 7.35 -5.70 10.60 -8.60 10.60 -9.40 0 -0.90 -4.35 -4.95 -5.30 -4.95 -0.50 0 -0.60 0.45 -0.40 1.45 0.25 1.20 0 1.70 -1.65 3.20 -2.90 2.65 -14.30 11.95 -15.05 12.20 -0.35 0.15 -0.95 0.90 -1.35 1.65 -0.70 1.40 -0.70 1.45 1.65 3.45 2.90 2.50 4.30 2.70 3.85 0.60z m-372.20 -11.30 c2.75 -1 3.80 -1.95 5 -4.60 0.95 -2.15 1.30 -6.85 0.50 -7.35 -0.25 -0.15 -0.70 0.65 -1 1.85 -1 3.70 -3.05 5.35 -6.75 5.35 -2.45 0 -6.70 -1.70 -7.15 -2.80 -0.15 -0.35 0.30 -1.75 1 -3.05 1.60 -3.05 4.70 -10.10 5.05 -11.40 0.15 -0.55 0.10 -1.25 -0.10 -1.55 -0.70 -1.10 -4.10 -1.80 -6.95 -1.45 -5.50 0.70 -8 3.55 -8.50 9.80 -0.35 4.35 0.65 7.30 3.55 10.10 2.80 2.70 5.25 4.20 8.40 5.05 3.50 0.95 4.35 0.95 6.95 0.05z m363.75 -10.40 c8 -8.35 10.35 -9.40 13.05 -6.05 1.45 1.80 1.50 1.80 3.30 1.25 2.30 -0.80 2.40 -2 0.30 -3.80 -1.25 -1 -2.05 -1.25 -3.75 -1.20 -2.40 0.15 -3.20 -0.25 -2.30 -1.15 1 -1 0.70 -1.80 -1.75 -4.15 -2.85 -2.70 -4.40 -3.10 -3.20 -0.80 0.35 0.60 0.25 1.25 -0.40 2.25 -0.95 1.40 -11.45 12.80 -14.40 15.60 -0.90 0.85 -1.65 1.85 -1.65 2.25 0 1.10 3 3 4 2.45 0.45 -0.25 3.50 -3.25 6.80 -6.65z m35.15 -1.20 c0.35 -0.70 0 -1.40 -1.50 -3.15 -1.95 -2.25 -1.95 -2.25 -3.30 -1.40 -1.90 1.15 -2 2.20 -0.30 3.95 1.65 1.70 4.35 2 5.10 0.60z m-47.30 -5.35 c2.45 -2.90 6.45 -7.30 8.85 -9.90 2.45 -2.55 4.45 -4.95 4.50 -5.30 0 -0.70 -2.80 -3.60 -3.45 -3.60 -0.50 0 -3.55 3.35 -5.30 5.75 -2.15 2.95 -7.75 8.35 -9.85 9.45 -2.15 1.15 -3.80 0.70 -5.20 -1.45 -1.45 -2.25 -1.50 -5.35 -0.05 -7.80 1.30 -2.20 9.35 -11.35 10.65 -12.10 0.40 -0.20 0.70 -0.65 0.70 -0.95 0 -0.95 -4.20 -4.40 -5.35 -4.40 -1.30 0 -1.35 0.15 -0.55 1.45 0.60 0.95 0.15 1.55 -8.75 12.05 -2 2.30 -2.85 4.60 -2.85 7.50 0 2.25 0.30 3.30 1.65 5.50 l1.60 2.75 3 0.05 c4 0.10 3.90 0.05 3.05 1.30 -0.45 0.60 -0.80 1.40 -0.80 1.80 0 0.70 2.45 3.05 3.25 3.10 0.30 0 2.50 -2.35 4.90 -5.20z m-334.45 2.85 l1.70 -1.85 -1.10 -1.35 c-6.90 -8.40 -8.50 -10.60 -10.60 -14.90 l-1.35 -2.70 2.30 -2.20 c4.25 -4 7.35 -2.80 12.50 4.80 2.90 4.25 4.05 6.15 4.85 8.20 0.40 0.90 0.95 1.35 1.75 1.35 1.20 0 5.90 -3.65 6.15 -4.80 0.25 -1 -0.90 -1.35 -1.85 -0.50 -0.70 0.65 -1.05 0.70 -1.70 0.15 -1 -0.70 -4.35 -6.20 -4.35 -7.10 0 -0.30 -0.45 -1 -1.05 -1.55 -0.60 -0.50 -1.45 -1.75 -1.95 -2.70 -1.75 -3.35 -5.80 -6 -9.25 -6 -3 0 -5.85 2.65 -7.70 7.10 -1.40 3.30 -2.25 4.05 -2.70 2.40 -0.40 -1.50 -1.55 -1.20 -3.95 1 -1.20 1.10 -2.30 2 -2.50 2 -0.25 0 -0.40 0.35 -0.40 0.80 0 0.65 0.35 0.75 1.75 0.55 1.65 -0.25 1.80 -0.15 6.35 5.30 4.55 5.50 7.80 9.75 9.55 12.50 0.50 0.75 1.10 1.35 1.35 1.35 0.25 0 1.25 -0.85 2.20 -1.85z m301.50 -21.90 c0.75 -0.95 2.85 -2.75 4.70 -3.95 7.10 -4.60 10.45 -6.65 13.65 -8.25 3.15 -1.55 3.30 -1.75 3 -2.95 -0.55 -1.95 -1.70 -1.90 -5.10 0.10 -1.65 1 -3.10 1.80 -3.25 1.80 -0.10 0 -1.90 1.15 -4 2.50 -2.05 1.40 -3.95 2.50 -4.20 2.50 -0.25 0 -0.65 0.30 -0.85 0.65 -0.20 0.30 -0.95 0.90 -1.60 1.25 -1 0.60 -1.25 0.60 -1.60 0 -0.25 -0.35 -0.30 -1 -0.15 -1.40 0.20 -0.40 0.50 -3.10 0.75 -6 0.25 -2.90 0.70 -6.75 0.95 -8.60 0.75 -5.10 0.70 -5.35 -1.25 -6.20 -3.35 -1.40 -3.75 -1.15 -3.75 2.70 0 1.85 -0.55 8.40 -1.20 14.60 -0.65 6.20 -1.05 11.50 -0.95 11.85 0.20 0.50 1.15 0.85 2.95 1.10 0.35 0 1.20 -0.75 1.90 -1.70z m-266.65 -4.75 c0.55 -0.30 0.95 -1.10 1 -1.90 0 -1.15 0.10 -1.20 0.40 -0.35 0.25 0.55 0.50 -1.35 0.70 -4.95 0.65 -10.85 1.65 -15.80 3.50 -16.70 0.60 -0.30 3.75 -1.80 6.95 -3.30 l5.85 -2.80 2.25 1.50 c1.20 0.85 2.30 1.70 2.40 1.90 0.35 0.85 12.45 10.15 13.25 10.25 1.05 0.05 4.15 -2.10 4.15 -2.85 0 -0.65 -3.45 -4 -6.50 -6.30 -2.15 -1.65 -12.85 -10.50 -16.55 -13.70 -0.95 -0.85 -2.60 -2.20 -3.65 -3.05 -1.05 -0.80 -3 -2.55 -4.35 -3.85 -1.30 -1.35 -2.60 -2.40 -2.90 -2.40 -0.25 0 -1.25 0.45 -2.20 1 l-1.70 1 -0.35 5.65 c-0.20 3.05 -0.75 7.75 -1.30 10.35 -0.50 2.60 -1.20 6.80 -1.50 9.25 -0.35 2.50 -1.05 6.65 -1.55 9.25 -0.50 2.60 -1.05 6.75 -1.25 9.15 l-0.35 4.40 1.35 -0.55 c0.75 -0.25 1.80 -0.75 2.35 -1z m248.95 -5.35 c0 -0.15 -0.40 -0.75 -0.85 -1.25 -0.75 -0.80 -0.75 -1.10 -0.20 -2 0.35 -0.55 1.10 -1.85 1.65 -2.85 0.55 -1 1.40 -2.35 1.90 -3.05 0.45 -0.70 2.05 -3.50 3.55 -6.20 1.50 -2.75 3.10 -5.65 3.55 -6.45 0.80 -1.35 0.80 -1.65 0.15 -2.35 -1.15 -1.25 -5.55 -3.20 -6.50 -2.80 -0.75 0.25 -0.75 0.40 0.05 1.75 0.75 1.30 0.80 1.70 0.25 2.90 -0.60 1.30 -5.35 9.75 -7.90 14.05 -2.40 3.90 -3.25 6.20 -2.70 6.75 1.05 1.05 7.05 2.30 7.05 1.50z m-13.25 -6.70 c0.20 -0.30 -0.15 -0.65 -0.75 -0.80 -1.20 -0.30 -1.15 -1.10 0.50 -5.40 3.70 -9.50 4.65 -12.35 5.15 -15.15 l0.50 -3.15 -1.85 -1.90 c-2.15 -2.20 -5.60 -3.55 -9.05 -3.55 -3.55 0 -4.50 0.75 -2.20 1.70 1.45 0.60 2.15 0.65 3.65 0.20 1.75 -0.55 1.95 -0.50 3.05 0.90 1.35 1.65 1.50 2.75 0.70 6.10 -0.90 3.65 -1.50 4 -3.70 2.30 -1.55 -1.15 -2.50 -1.45 -5.20 -1.60 -4.60 -0.25 -7.25 1.20 -9.25 5.05 -1.35 2.65 -1.40 2.95 -0.85 5.20 1.35 5.20 4.70 7.30 9.75 6 l2.70 -0.75 -0.25 1.95 c-0.25 1.80 -0.20 1.95 1 1.95 0.65 0 2 0.35 2.90 0.75 2.05 0.85 2.80 0.90 3.20 0.20z m-118.85 -10.30 c4.45 -2.75 5.80 -5.40 6.50 -13.15 0.45 -4.55 0.30 -24.05 -0.15 -25.40 -0.40 -1.15 -7.75 0.20 -7.75 1.45 0 0.30 0.45 0.65 1 0.80 0.55 0.15 1.20 0.85 1.40 1.60 0.20 0.70 0.35 7.25 0.35 14.55 0 14.35 -0.35 16.70 -2.50 18.40 -1.25 1 -1.70 2.60 -0.75 2.60 0.30 0 1.15 -0.40 1.90 -0.85z m91.50 0.05 c3.60 -1 4.10 -1.50 2.15 -1.95 -1.85 -0.40 -2 -1.65 -0.60 -5.50 3.35 -9.05 4.10 -11.10 4.60 -11.95 0.30 -0.55 0.95 -2.10 1.45 -3.50 0.50 -1.40 1.75 -4.45 2.75 -6.80 3.80 -8.70 3.85 -8.90 2.85 -9.45 -0.45 -0.25 -2 -0.60 -3.35 -0.75 l-2.50 -0.35 -0.05 2.90 c-0.05 2.75 -0.90 5.45 -4.20 12.90 -0.50 1.10 -1.15 2.90 -1.50 4 -0.35 1.10 -0.90 2.55 -1.30 3.25 -1.25 2.45 -3.20 6.95 -3.20 7.45 0 0.30 -0.55 1.75 -1.25 3.25 -1.50 3.30 -1.70 6.60 -0.35 6.95 1.45 0.40 1.60 0.35 4.50 -0.45z m-152.55 -0.80 c0.55 -0.65 1.30 -1.65 1.60 -2.25 0.75 -1.45 1.85 -1.45 2.60 -0.10 0.45 0.85 0.85 1 2.10 0.75 2.55 -0.50 3.15 -1.40 2.45 -3.65 -0.75 -2.55 -4.35 -15.50 -5.45 -19.90 -0.85 -3.25 -1 -3.50 -2.35 -3.65 -2.05 -0.25 -3.80 0.30 -3.80 1.20 0 0.40 0.55 2.50 1.20 4.60 0.70 2.10 1.40 4.65 1.55 5.60 0.20 0.95 0.60 2.05 0.85 2.40 0.30 0.30 0.65 2.60 0.80 5.05 l0.25 4.50 -1.70 1 c-2.15 1.30 -2.75 1.30 -5.45 -0.05 -3.15 -1.60 -4.80 -4.25 -6 -9.65 -2.10 -9.35 -2.35 -10.25 -2.60 -10.50 -0.15 -0.15 -1.55 0.15 -3.20 0.65 -3.25 1 -4.15 2.25 -2.10 3.05 0.90 0.35 1.45 1.35 2.50 4.85 0.75 2.45 1.60 5.60 1.95 6.95 0.30 1.40 0.80 2.70 1 3 0.25 0.25 0.45 0.80 0.45 1.25 0 1.40 2.80 4 5.30 5 3.50 1.35 6.75 1.30 8.05 -0.10z m141.15 -3.50 c0 -0.25 -0.70 -0.70 -1.55 -1 -1.45 -0.50 -1.50 -0.60 -1.15 -2.60 0.15 -1.10 0.90 -4.20 1.55 -6.80 0.70 -2.60 1.45 -5.65 1.65 -6.75 0.25 -1.10 0.80 -3.05 1.20 -4.25 1.15 -3.30 1.05 -4.95 -0.30 -5.20 -2.65 -0.55 -5 -0.75 -5.70 -0.45 -0.75 0.30 -1 1.65 -0.25 1.65 1.40 0 0.65 5.30 -2.45 16.70 -1.10 4.10 -1.90 7.85 -1.75 8.35 0.25 0.75 0.95 0.95 3.65 1.05 3.80 0.15 5.10 0 5.10 -0.70z m-120.25 -1.90 c1.20 -0.45 1.35 -0.70 1.10 -2.40 -1.15 -7.55 -1.90 -16.10 -1.60 -18.45 0.30 -2.45 0.50 -2.80 1.90 -3.40 0.90 -0.35 1.75 -0.55 2 -0.40 0.95 0.55 2.75 -0.40 3.05 -1.65 0.40 -1.45 -0.70 -2.65 -2.35 -2.70 -1.35 0 -3.85 1.40 -3.85 2.20 0 0.35 -0.35 1 -0.80 1.35 -0.75 0.60 -0.95 0.55 -1.60 -0.45 -0.85 -1.30 -2.10 -1.35 -6.10 -0.40 -2.65 0.65 -2.70 0.70 -1.40 1.20 1.50 0.60 2.90 2.90 2.90 4.70 0 0.65 0.70 5.60 1.60 11.05 1.50 9.40 1.65 9.85 2.70 9.85 0.65 0 1.75 -0.25 2.45 -0.50z m105.15 -0.65 c2.05 -0.95 1.75 -1.65 -5.30 -11.80 -2.85 -4.10 -2.85 -4.85 0.05 -6.55 5.15 -3 8.35 -5.25 8.35 -5.95 0 -0.90 -1.45 -2.55 -2.25 -2.55 -0.35 0 -2.10 1.20 -3.90 2.65 -6.15 4.90 -9.30 7.35 -9.65 7.35 -0.60 0 1.50 -11.65 3.80 -21.25 0.55 -2.25 1 -4.65 1 -5.40 l0 -1.35 -4.25 0 c-4.40 0 -5.35 0.50 -2.70 1.45 l1.55 0.55 -0.35 3.10 c-0.20 1.75 -0.70 4.40 -1.10 5.90 -0.40 1.50 -1.15 5.25 -1.65 8.25 -0.90 4.90 -2.20 11.40 -4.05 19.85 -0.35 1.60 -0.50 3 -0.35 3.15 0.35 0.35 4.40 -0.55 4.90 -1.10 0.25 -0.20 0.65 -2.15 0.95 -4.30 0.90 -6.35 1.90 -7.25 4.15 -3.70 5.55 8.55 7.15 11.15 7.50 11.95 0.35 0.90 1 0.85 3.30 -0.25z m-82.50 -3.35 c0.85 -0.55 1.60 -1.20 1.60 -1.50 0 -0.25 0.45 -0.70 1 -1 0.85 -0.45 1.10 -0.35 1.60 0.75 0.65 1.40 1.90 1.60 5.10 0.70 l1.90 -0.55 -0.95 -1.05 c-1 -1.10 -1.30 -2.65 -2.90 -14.60 -0.65 -4.55 -1.15 -6.45 -2.05 -7.85 -0.65 -1.05 -1.30 -1.90 -1.40 -1.90 -0.10 0 -1.30 -0.20 -2.65 -0.45 -3.60 -0.70 -7.85 0.35 -9.80 2.45 -0.80 0.85 -1.35 1.70 -1.20 1.85 0.55 0.50 3.45 -0.50 4.70 -1.65 1.60 -1.45 3.35 -1.20 5.20 0.80 1.50 1.55 2.40 5.75 1.50 6.65 -0.30 0.30 -2 0.60 -3.75 0.65 -4.50 0.15 -6.80 1.50 -8.55 5.05 -1.15 2.25 -1.35 3.10 -1.10 5.20 0.70 5.70 7.15 9.25 11.75 6.45z m47.60 -1.35 c3.60 -1.45 6.90 -5.85 8.20 -10.80 1 -3.90 0.30 -9.30 -1.55 -12 -1.75 -2.50 -4.65 -4.35 -6.80 -4.35 -2.55 0 -8.90 2.35 -10.45 3.85 -0.80 0.75 -2.15 2.60 -3 4.15 -1.55 2.60 -1.60 3 -1.55 7.35 0.05 3.50 0.25 4.85 0.85 5.45 0.45 0.40 0.80 1.10 0.80 1.45 0 0.95 2.35 3.65 4.45 5.05 1.55 1 2.20 1.10 4.55 0.85 1.50 -0.15 3.55 -0.60 4.50 -1z m117.10 -2.50 c1.45 -1.30 1.10 -2.30 -1.25 -3.25 -2.70 -1.15 -2.95 -1.15 -4.25 0.25 -1.20 1.30 -0.95 1.95 1.15 3.05 1.95 1 3.20 1 4.35 -0.05z m-62.40 -23.95 c1.40 -1.35 1 -2.60 -1.05 -3.15 -3.40 -0.95 -4.50 -0.50 -4.75 1.95 -0.10 0.90 0.15 1.25 1.10 1.55 2.15 0.60 3.90 0.50 4.70 -0.35z m-78.40 -8.45 c1.25 -1.90 0.75 -2.95 -1.45 -3.15 -2.60 -0.20 -4.35 0.95 -4.35 2.90 0 1.45 0.05 1.50 2.50 1.50 2.10 0 2.60 -0.20 3.30 -1.25z"/>
  <path d="M467 181.15 c-0.90 -1.60 -2 -3.45 -2.45 -4.15 -1.60 -2.50 -2 -3.25 -2.30 -4 -0.15 -0.40 -0.65 -1.40 -1.05 -2.15 -0.35 -0.80 -0.70 -1.65 -0.70 -1.95 0 -0.30 -0.55 -1.70 -1.20 -3.10 -1.90 -4.05 -2.60 -8.20 -1.85 -10.95 1.30 -4.50 4.30 -5.95 12.35 -6 6.60 -0.05 7.25 0.25 9.70 4.35 1 1.65 2.25 3 3.10 3.35 1.25 0.50 1.60 0.40 3.10 -0.75 1 -0.75 1.85 -1.90 2.05 -2.80 0.50 -2.35 2.75 -3.85 6.35 -4.25 3.95 -0.40 9.90 0.40 12.05 1.60 2.55 1.50 3.90 4.35 3.70 7.65 -0.25 4 -4.55 14.55 -8.05 19.95 -1.25 1.90 -2.55 4.05 -2.90 4.75 -0.80 1.80 -1.70 1.65 -4.20 -0.70 l-2.20 -2 -9.15 0 -9.15 0 -1.95 2 c-1.05 1.10 -2.30 2 -2.75 2 -0.45 0 -1.55 -1.30 -2.50 -2.85z"/>
  <path d="M206.30 365.60 c-3.55 -1.20 -5.65 -2.20 -6.15 -2.90 -0.65 -1 -0.55 -1.15 0.95 -2.10 0.90 -0.60 3 -2.05 4.65 -3.30 4.45 -3.30 5 -3.15 6.40 2 1 3.65 1.15 8.20 0.25 8.20 -0.35 -0.05 -3.10 -0.85 -6.10 -1.90z"/>
  <path d="M219.50 299 c-3.50 -0.60 -5 -2.10 -5 -5 0 -2.25 0.75 -3.40 2.85 -4.25 2.40 -1 4.30 -0.95 6.90 0.25 3.60 1.65 4.20 3.90 1.80 6.65 -1.75 1.95 -4.05 2.80 -6.55 2.35z"/>
  <path d="M217.75 253 c-0.55 -0.20 -1.75 -0.70 -2.70 -1.05 -0.90 -0.35 -2.30 -1.15 -3.10 -1.80 -1.25 -1.05 -1.35 -1.35 -0.90 -2.65 0.80 -2.20 4.20 -5.10 5.85 -4.90 0.95 0.10 1.40 0.50 1.50 1.30 0.10 0.60 0.40 1.10 0.65 1.10 0.25 0 0.45 0.70 0.45 1.55 0 0.90 0.25 2.45 0.55 3.50 0.45 1.50 0.45 2.10 -0.05 2.70 -0.70 0.85 -0.85 0.85 -2.25 0.25z"/>
  <path d="M225.10 226.90 c-1.90 -0.50 -6.10 -4.35 -6.10 -5.55 0 -1.25 2.50 -3.75 4.60 -4.60 1.65 -0.65 1.90 -0.65 2.85 0.15 0.85 0.70 1.10 1.60 1.30 4.85 0.35 4.90 -0.15 5.85 -2.65 5.15z"/>
  <path d="M719.60 208.50 c-1.60 -0.65 -2.15 -2.45 -1.50 -5 1 -3.90 8.05 -9.70 12.15 -10.05 4.10 -0.30 5.80 0.05 7.30 1.50 3.30 3.30 1.05 7.40 -5.90 10.80 -2.15 1.05 -5.25 2.20 -6.90 2.55 -3.50 0.80 -3.65 0.80 -5.15 0.20z"/>
  <path d="M289.50 118.50 c-1.55 -1.65 -3.50 -5.35 -3.50 -6.60 0 -1.60 2.45 -2.90 5.45 -2.90 2.80 0 4.05 0.55 4.05 1.85 0 0.85 -3.90 9.15 -4.30 9.15 -0.15 0 -0.95 -0.70 -1.70 -1.50z"/>
  <path d="M358.85 61.90 c-0.10 -0.35 0 -2.20 0.25 -4.15 0.25 -1.90 0.65 -4.85 0.80 -6.50 0.25 -2.10 0.60 -3.05 1.10 -3.15 0.75 -0.15 9.60 7.60 9.90 8.65 0.15 0.55 -1.65 1.70 -6.85 4.30 -3 1.55 -4.80 1.85 -5.20 0.85z"/>
  <path d="M578.15 69.80 c-4.15 -3.50 -1.50 -11.80 3.70 -11.80 2.60 0 4.65 2.25 4.65 5.10 -0.05 2.30 -0.50 3.40 -2.60 5.85 -1.90 2.20 -3.80 2.50 -5.75 0.85z"/>
  <path d="M449.25 51.90 c-2.95 -2.80 -3.15 -7.20 -0.55 -10.05 3 -3.25 8.30 0.20 8.30 5.40 0 1.95 -1.20 5.25 -2.15 5.85 -1.45 0.90 -3.85 0.40 -5.60 -1.20z"/>
  <path d="M496.10 51.50 c-3.20 -2.30 -3.75 -3.50 -4 -8.60 -0.25 -5.40 0.45 -8.40 2.65 -10.70 2.30 -2.45 4.55 -2.40 7.15 0.20 2.15 2.15 2.60 3.70 2.60 9.15 0 4.30 -1.05 7.70 -3.05 9.75 -2 2.10 -2.75 2.10 -5.35 0.20z"/>
 </g>
</svg>